<svg width="175" height="93" viewBox="0 0 175 93" fill="none" xmlns="http://www.w3.org/2000/svg">
<mask id="mask0_7_1429" style="mask-type:luminance" maskUnits="userSpaceOnUse" x="0" y="0" width="175" height="93">
<path d="M174.988 0H0.0123291V93H174.988V0Z" fill="white"/>
</mask>
<g mask="url(#mask0_7_1429)">
<path d="M62.938 36.7332H42.2891C40.8338 36.7332 39.654 37.9134 39.654 39.3694V88.8368C39.654 90.2927 40.8338 91.4729 42.2891 91.4729H62.938C64.3933 91.4729 65.5731 90.2927 65.5731 88.8368V39.3694C65.5731 37.9134 64.3933 36.7332 62.938 36.7332Z" fill="#E0F0F5"/>
<path d="M98.4544 20.1672H77.3304C76.0062 20.1672 74.9328 21.241 74.9328 22.5657V89.7948C74.9328 91.1194 76.0062 92.1932 77.3304 92.1932H98.4544C99.7785 92.1932 100.852 91.1194 100.852 89.7948V22.5657C100.852 21.241 99.7785 20.1672 98.4544 20.1672Z" fill="#E0F0F5"/>
<path d="M132.733 0.720154H112.17C110.691 0.720154 109.491 1.91975 109.491 3.39952V88.7936C109.491 90.2733 110.691 91.4729 112.17 91.4729H132.733C134.212 91.4729 135.41 90.2733 135.41 88.7936V3.39952C135.41 1.91975 134.212 0.720154 132.733 0.720154Z" fill="#E0F0F5"/>
<path d="M135.771 58.7085V89.0458C135.772 89.3979 135.703 89.7468 135.569 90.0723C135.434 90.3978 135.237 90.6936 134.988 90.9426C134.739 91.1915 134.443 91.3889 134.118 91.5232C133.793 91.6575 133.444 91.7262 133.092 91.7252H112.537C112.184 91.7261 111.836 91.6575 111.51 91.5233C111.184 91.3891 110.888 91.1919 110.639 90.943C110.389 90.694 110.191 90.3984 110.056 90.0728C109.922 89.7473 109.852 89.3982 109.852 89.0458V61.0925C109.852 59.9464 110.307 58.8472 111.117 58.0367C111.927 57.2262 113.026 56.771 114.171 56.771C115.317 56.771 116.416 57.2262 117.226 58.0367C118.036 58.8472 118.491 59.9464 118.491 61.0925V67.1067C118.491 68.2529 118.946 69.352 119.756 70.1625C120.566 70.973 121.666 71.4283 122.811 71.4283C123.957 71.4283 125.056 70.973 125.866 70.1625C126.676 69.352 127.131 68.2529 127.131 67.1067V58.7085C127.131 57.5623 127.586 56.4631 128.396 55.6527C129.206 54.8422 130.305 54.3869 131.451 54.3869C132.596 54.3869 133.695 54.8422 134.505 55.6527C135.315 56.4631 135.771 57.5623 135.771 58.7085Z" fill="#BDDFE9"/>
<path d="M100.456 46.1834V89.4855C100.457 89.8375 100.388 90.1863 100.254 90.5118C100.12 90.8373 99.9225 91.1332 99.6736 91.3821C99.4248 91.6311 99.1292 91.8285 98.8038 91.9627C98.4784 92.0971 98.1296 92.1658 97.7777 92.1648H77.2224C76.8701 92.1658 76.521 92.0971 76.1953 91.963C75.8695 91.8287 75.5734 91.6314 75.3239 91.3826C75.0745 91.1337 74.8765 90.838 74.7414 90.5124C74.6064 90.1869 74.5369 89.8379 74.5369 89.4855V64.4131C74.5369 63.267 74.9921 62.1678 75.8022 61.3573C76.6123 60.5468 77.7111 60.0916 78.8568 60.0916C80.0025 60.0916 81.1013 60.5468 81.9114 61.3573C82.7214 62.1678 83.1766 63.267 83.1766 64.4131V67.5463C83.1766 68.6924 83.6317 69.7916 84.4418 70.6021C85.252 71.4126 86.3507 71.8679 87.4964 71.8679C88.6421 71.8679 89.7409 71.4126 90.551 70.6021C91.3612 69.7916 91.8163 68.6924 91.8163 67.5463V46.1834C91.8163 45.0372 92.2714 43.9381 93.0815 43.1276C93.8917 42.3171 94.9905 41.8618 96.1361 41.8618C97.2818 41.8618 98.3806 42.3171 99.1907 43.1276C100.001 43.9381 100.456 45.0372 100.456 46.1834Z" fill="#BDDFE9"/>
<path d="M65.9331 59.4286V88.3254C65.9341 88.6775 65.8654 89.0264 65.7312 89.3519C65.5969 89.6774 65.3997 89.9731 65.1508 90.2221C64.9019 90.4711 64.6062 90.6684 64.2808 90.8028C63.9554 90.937 63.6068 91.0057 63.2548 91.0047H42.6995C42.3472 91.0057 41.9981 90.9372 41.6723 90.8029C41.3466 90.6686 41.0505 90.4715 40.801 90.2225C40.5515 89.9737 40.3536 89.678 40.2186 89.3525C40.0836 89.0268 40.014 88.6779 40.014 88.3254V63.2532C40.014 62.1071 40.4691 61.0078 41.2793 60.1974C42.0894 59.3869 43.1882 58.9316 44.3338 58.9316C45.4795 58.9316 46.5783 59.3869 47.3884 60.1974C48.1986 61.0078 48.6538 62.1071 48.6538 63.2532V66.3863C48.6538 67.5324 49.1088 68.6317 49.919 69.442C50.7291 70.2525 51.8279 70.7078 52.9736 70.7078C54.1193 70.7078 55.218 70.2525 56.0282 69.442C56.8383 68.6317 57.2934 67.5324 57.2934 66.3863V59.4286C57.2934 58.2824 57.7485 57.1832 58.5587 56.3727C59.3687 55.5623 60.4676 55.1071 61.6133 55.1071C62.759 55.1071 63.8577 55.5623 64.6679 56.3727C65.4779 57.1832 65.9331 58.2824 65.9331 59.4286Z" fill="#BDDFE9"/>
<path d="M141.084 13.3317C141.772 13.3317 142.33 12.7739 142.33 12.0856C142.33 11.3975 141.772 10.8396 141.084 10.8396C140.396 10.8396 139.839 11.3975 139.839 12.0856C139.839 12.7739 140.396 13.3317 141.084 13.3317Z" fill="#EEF0F1"/>
<path d="M144.728 21.0243C144.043 21.0197 143.381 20.7781 142.855 20.3402C142.329 19.9025 141.971 19.2959 141.842 18.6237C141.712 17.9514 141.82 17.255 142.146 16.6531C142.472 16.0513 142.997 15.5812 143.631 15.3228C144.264 15.0644 144.968 15.0338 145.622 15.236C146.276 15.4384 146.839 15.8612 147.216 16.4324C147.593 17.0036 147.761 17.688 147.69 18.3689C147.62 19.0499 147.316 19.6854 146.83 20.1672C146.27 20.7205 145.514 21.0288 144.728 21.0243ZM144.728 15.8457C144.155 15.8782 143.615 16.1287 143.221 16.5459C142.827 16.9631 142.608 17.5153 142.608 18.0892C142.608 18.6633 142.827 19.2155 143.221 19.6327C143.615 20.0499 144.155 20.3004 144.728 20.3329C145.021 20.3358 145.314 20.2804 145.588 20.1699C145.861 20.0596 146.11 19.8963 146.319 19.6896C146.53 19.4828 146.697 19.2366 146.812 18.9651C146.926 18.6935 146.986 18.4021 146.988 18.1072C146.992 17.5138 146.76 16.9428 146.345 16.519C145.93 16.0953 145.364 15.8533 144.77 15.8457H144.728Z" fill="#EEF0F1"/>
<path d="M52.2536 82.8298C56.8263 82.8298 60.5333 79.1214 60.5333 74.5468C60.5333 69.9722 56.8263 66.2638 52.2536 66.2638C47.6809 66.2638 43.9738 69.9722 43.9738 74.5468C43.9738 79.1214 47.6809 82.8298 52.2536 82.8298Z" fill="#A3CAD3"/>
<path d="M52.9735 78.5085C57.5463 78.5085 61.2532 74.8001 61.2532 70.2255C61.2532 65.6509 57.5463 61.9425 52.9735 61.9425C48.4007 61.9425 44.6938 65.6509 44.6938 70.2255C44.6938 74.8001 48.4007 78.5085 52.9735 78.5085Z" fill="white"/>
<path d="M52.2536 79.949C50.4736 79.949 48.7336 79.4209 47.2536 78.4316C45.7737 77.4424 44.6201 76.0362 43.939 74.3911C43.2578 72.746 43.0795 70.9358 43.4269 69.1893C43.7741 67.4428 44.6312 65.8385 45.8898 64.5794C47.1485 63.3203 48.7521 62.4628 50.4978 62.1155C52.2436 61.768 54.0531 61.9463 55.6976 62.6278C57.342 63.3092 58.7476 64.4632 59.7366 65.9438C60.7254 67.4243 61.2533 69.165 61.2533 70.9457C61.2495 73.3324 60.3 75.6201 58.6131 77.3078C56.9262 78.9953 54.6392 79.9452 52.2536 79.949ZM52.2536 63.383C50.7583 63.383 49.2968 63.8265 48.0536 64.6575C46.8104 65.4885 45.8415 66.6697 45.2693 68.0516C44.6971 69.4335 44.5474 70.9541 44.8391 72.4211C45.1308 73.8882 45.8507 75.2357 46.908 76.2934C47.9653 77.351 49.3123 78.0713 50.7788 78.3631C52.2451 78.655 53.7652 78.5052 55.1466 77.9328C56.528 77.3604 57.7086 76.391 58.5392 75.1473C59.3699 73.9037 59.8133 72.4414 59.8133 70.9457C59.8114 68.9405 59.0143 67.0181 57.597 65.6002C56.1796 64.1822 54.258 63.3848 52.2536 63.383Z" fill="#183154"/>
<path d="M122.812 34.5723C127.384 34.5723 131.091 30.8639 131.091 26.2893C131.091 21.7147 127.384 18.0063 122.812 18.0063C118.238 18.0063 114.531 21.7147 114.531 26.2893C114.531 30.8639 118.238 34.5723 122.812 34.5723Z" fill="#BDDFE9"/>
<path d="M123.531 30.9711C128.103 30.9711 131.81 27.2627 131.81 22.6881C131.81 18.1135 128.103 14.4051 123.531 14.4051C118.958 14.4051 115.252 18.1135 115.252 22.6881C115.252 27.2627 118.958 30.9711 123.531 30.9711Z" fill="#8FDAFF"/>
<path d="M131.091 22.9764C131.094 24.8265 130.479 26.6244 129.341 28.0831C128.204 29.542 126.611 30.5775 124.817 31.0244C123.022 31.4713 121.13 31.3039 119.442 30.5488C117.753 29.7937 116.367 28.4945 115.504 26.8586C116.697 27.4992 118.03 27.8333 119.384 27.831C120.815 27.8383 122.224 27.4737 123.473 26.7731C124.722 26.0724 125.768 25.0595 126.508 23.8335C127.248 22.6076 127.657 21.2105 127.695 19.7789C127.735 18.3472 127.401 16.93 126.728 15.6659C128.05 16.3727 129.156 17.4269 129.924 18.7149C130.693 20.0031 131.096 21.4763 131.091 22.9764Z" fill="#38609B"/>
<path d="M122.804 31.6913C121.151 31.692 119.53 31.2379 118.119 30.3788C116.708 29.5197 115.559 28.2886 114.8 26.8204C114.041 25.352 113.7 23.7032 113.815 22.0541C113.93 20.4051 114.496 18.8195 115.451 17.4708C116.408 16.1221 117.715 15.0624 119.232 14.4076C120.75 13.7527 122.418 13.528 124.054 13.7581C125.69 13.9881 127.231 14.6641 128.51 15.7119C129.788 16.7598 130.753 18.1391 131.3 19.699C131.772 21.0571 131.914 22.5086 131.712 23.9326C131.51 25.3565 130.972 26.7115 130.14 27.8849C129.31 29.0582 128.209 30.0158 126.933 30.6779C125.657 31.34 124.242 31.6875 122.804 31.6913ZM122.804 15.1253C121.197 15.1243 119.632 15.6349 118.335 16.5833C117.037 17.5316 116.076 18.8684 115.589 20.4001C115.101 21.9318 115.114 23.5788 115.625 25.1027C116.136 26.6266 117.119 27.9483 118.43 28.8762C119.742 29.8041 121.315 30.2903 122.922 30.2642C124.529 30.2381 126.085 29.7012 127.367 28.731C128.647 27.761 129.587 26.4081 130.048 24.8685C130.509 23.3288 130.469 21.6822 129.932 20.1672C129.408 18.6943 128.442 17.4195 127.166 16.5169C125.89 15.6144 124.367 15.1284 122.804 15.1253Z" fill="#183154"/>
<path d="M95.7688 35.2925C95.6068 35.2899 95.4504 35.2328 95.3249 35.1303C95.1994 35.0278 95.1122 34.886 95.0771 34.7278C95.0422 34.5695 95.0616 34.4041 95.1322 34.2582C95.2029 34.1123 95.3206 33.9946 95.4665 33.9239L114.186 25.0144C114.355 24.9478 114.543 24.9479 114.713 25.0147C114.883 25.0814 115.02 25.2099 115.099 25.3743C115.177 25.5386 115.19 25.7265 115.136 25.9003C115.081 26.0741 114.963 26.2208 114.805 26.3108L96.0857 35.2205C95.9875 35.2698 95.8788 35.2946 95.7688 35.2925Z" fill="#183154"/>
<path d="M39.294 13.267L45.853 26.5703L56.2135 27.3697L49.0137 32.4115L53.3335 51.8585L40.734 45.4555L40.7268 41.1266L27.4145 46.0965L28.6745 39.0596L29.5744 29.5305L32.7279 26.5703L39.294 13.267Z" fill="#BDDFE9"/>
<path opacity="0.3" d="M1.48826 54.0985C1.96352 53.6325 2.52632 53.2653 3.14418 53.0181C3.76206 52.7707 4.42275 52.6483 5.08814 52.658H21.5035C22.8402 52.658 24.122 52.1267 25.0672 51.1812C26.0124 50.2357 26.5433 48.9532 26.5433 47.6161C26.5433 46.2789 26.0124 44.9965 25.0672 44.051C24.122 43.1055 22.8402 42.5742 21.5035 42.5742H11.9854C10.6488 42.5742 9.36694 42.0431 8.42179 41.0976C7.47665 40.1521 6.94567 38.8696 6.94567 37.5325C6.94567 36.1953 7.47665 34.9129 8.42179 33.9674C9.36694 33.0219 10.6488 32.4906 11.9854 32.4906H35.2911C36.3451 32.4906 37.356 32.9095 38.1013 33.6552C38.8466 34.4007 39.2653 35.412 39.2653 36.4665V89.0238C39.2653 90.0783 38.8466 91.0895 38.1013 91.8352C37.356 92.5808 36.3451 92.9997 35.2911 92.9997H28.4297C29.7663 92.9997 31.0483 92.4685 31.9934 91.523C32.9385 90.5774 33.4695 89.295 33.4695 87.9579C33.4695 86.6206 32.9385 85.3383 31.9934 84.3928C31.0483 83.4472 29.7663 82.916 28.4297 82.916H5.05214C3.71549 82.916 2.4336 82.3849 1.48845 81.4394C0.543295 80.4938 0.0123159 79.2114 0.0123159 77.8743C0.0123159 76.537 0.543295 75.2547 1.48845 74.3092C2.4336 73.3636 3.71549 72.8324 5.05214 72.8324H17.8245C19.1612 72.8324 20.443 72.3013 21.3882 71.3556C22.3333 70.4101 22.8643 69.1278 22.8643 67.7905C22.8643 66.4534 22.3333 65.171 21.3882 64.2254C20.443 63.2799 19.1612 62.7488 17.8245 62.7488H5.05214C3.71549 62.7488 2.4336 62.2175 1.48845 61.272C0.543295 60.3265 0.0123159 59.0441 0.0123159 57.7069C0.00509216 57.0384 0.131994 56.3752 0.385512 55.7566C0.63903 55.1381 1.01401 54.5767 1.48826 54.1057" fill="#BDDFE9"/>
<path opacity="0.3" d="M135.706 14.7797V67.3947C135.705 67.918 135.808 68.4363 136.007 68.92C136.207 69.4038 136.5 69.8432 136.87 70.2133C137.24 70.5833 137.68 70.8766 138.162 71.0765C138.646 71.2763 139.164 71.3787 139.687 71.3777H146.57C145.233 71.3777 143.952 70.8466 143.006 69.901C142.061 68.9555 141.531 67.6731 141.531 66.3359C141.531 64.9987 142.061 63.7164 143.006 62.7708C143.952 61.8253 145.233 61.2941 146.57 61.2941H169.926C171.263 61.2941 172.545 60.7629 173.49 59.8174C174.435 58.8719 174.966 57.5894 174.966 56.2522C174.966 54.9151 174.435 53.6326 173.49 52.6871C172.545 51.7416 171.263 51.2105 169.926 51.2105H157.176C155.839 51.2105 154.557 50.6792 153.612 49.7337C152.667 48.7882 152.136 47.5058 152.136 46.1686C152.136 44.8315 152.667 43.549 153.612 42.6035C154.557 41.658 155.839 41.1268 157.176 41.1268H169.926C171.263 41.1268 172.545 40.5956 173.49 39.6501C174.435 38.7045 174.966 37.4221 174.966 36.085C174.966 34.7477 174.435 33.4654 173.49 32.5199C172.545 31.5744 171.263 31.0431 169.926 31.0431H153.49C152.153 31.0431 150.871 30.512 149.926 29.5665C148.98 28.6209 148.45 27.3385 148.45 26.0014C148.45 24.6641 148.98 23.3818 149.926 22.4363C150.871 21.4907 152.153 20.9595 153.49 20.9595H163.015C164.352 20.9595 165.633 20.4284 166.578 19.4827C167.524 18.5373 168.054 17.2549 168.054 15.9176C168.054 14.5805 167.524 13.2981 166.578 12.3525C165.633 11.407 164.352 10.8759 163.015 10.8759H139.687C138.645 10.8738 137.643 11.2819 136.898 12.0123C136.153 12.7425 135.725 13.7365 135.706 14.7797Z" fill="#BDDFE9"/>
<path d="M129.349 52.0675C130.613 52.0675 131.638 51.042 131.638 49.777C131.638 48.5121 130.613 47.4866 129.349 47.4866C128.084 47.4866 127.059 48.5121 127.059 49.777C127.059 51.042 128.084 52.0675 129.349 52.0675Z" fill="#BDDFE9"/>
<path opacity="0.5" d="M125.353 53.7821C125.985 53.7821 126.498 53.2693 126.498 52.6369C126.498 52.0044 125.985 51.4916 125.353 51.4916C124.721 51.4916 124.208 52.0044 124.208 52.6369C124.208 53.2693 124.721 53.7821 125.353 53.7821Z" fill="#BDDFE9"/>
<path d="M84.3645 57.6135C85.629 57.6135 86.6541 56.5881 86.6541 55.3231C86.6541 54.0581 85.629 53.0327 84.3645 53.0327C83.1001 53.0327 82.075 54.0581 82.075 55.3231C82.075 56.5881 83.1001 57.6135 84.3645 57.6135Z" fill="#BDDFE9"/>
<path opacity="0.5" d="M80.3615 59.3277C80.9937 59.3277 81.5062 58.815 81.5062 58.1825C81.5062 57.55 80.9937 57.0373 80.3615 57.0373C79.7293 57.0373 79.2167 57.55 79.2167 58.1825C79.2167 58.815 79.7293 59.3277 80.3615 59.3277Z" fill="#BDDFE9"/>
<path d="M51.6559 56.7565C52.9205 56.7565 53.9455 55.731 53.9455 54.466C53.9455 53.2011 52.9205 52.1756 51.6559 52.1756C50.3915 52.1756 49.3664 53.2011 49.3664 54.466C49.3664 55.731 50.3915 56.7565 51.6559 56.7565Z" fill="#BDDFE9"/>
<path opacity="0.5" d="M47.6529 58.4707C48.2851 58.4707 48.7977 57.958 48.7977 57.3254C48.7977 56.693 48.2851 56.1803 47.6529 56.1803C47.0207 56.1803 46.5082 56.693 46.5082 57.3254C46.5082 57.958 47.0207 58.4707 47.6529 58.4707Z" fill="#BDDFE9"/>
<path d="M84.3644 21.1036H98.2888C98.2888 21.5238 98.1219 21.9268 97.8249 22.2241C97.5279 22.5212 97.125 22.6882 96.7048 22.6882H85.9556C85.5356 22.6882 85.1327 22.5212 84.8356 22.2241C84.5385 21.9268 84.3716 21.5238 84.3716 21.1036H84.3644Z" fill="white"/>
<path d="M62.9956 92.1932H42.3396C41.4363 92.1932 40.5702 91.8343 39.9315 91.1954C39.2928 90.5565 38.9341 89.69 38.9341 88.7864V39.8087C38.9341 38.9052 39.2928 38.0386 39.9315 37.3997C40.5702 36.7609 41.4363 36.4019 42.3396 36.4019H62.9956C63.8988 36.4019 64.765 36.7609 65.4037 37.3997C66.0423 38.0386 66.4011 38.9052 66.4011 39.8087V88.7864C66.4011 89.69 66.0423 90.5565 65.4037 91.1954C64.765 91.8343 63.8988 92.1932 62.9956 92.1932ZM42.3396 37.8208C41.8183 37.8208 41.3183 38.0279 40.9497 38.3967C40.5811 38.7655 40.374 39.2656 40.374 39.7871V88.7648C40.3712 89.0248 40.4199 89.2828 40.5175 89.524C40.6149 89.765 40.7592 89.9843 40.9421 90.1692C41.1248 90.3541 41.3424 90.5008 41.5824 90.601C41.8223 90.7012 42.0796 90.7527 42.3396 90.7527H62.9956C63.5163 90.7509 64.0151 90.543 64.3834 90.1747C64.7516 89.8063 64.9592 89.3073 64.9612 88.7864V39.8087C64.9612 39.2873 64.7541 38.7871 64.3855 38.4183C64.0169 38.0495 63.5169 37.8424 62.9956 37.8424L42.3396 37.8208Z" fill="#183154"/>
<path d="M97.8281 92.1934H77.172C76.2689 92.1934 75.4026 91.8345 74.7639 91.1956C74.1254 90.5566 73.7666 89.6901 73.7666 88.7865V23.3221C73.7666 22.4186 74.1254 21.552 74.7639 20.9131C75.4026 20.2742 76.2689 19.9152 77.172 19.9152H97.8281C98.7313 19.9152 99.5975 20.2742 100.236 20.9131C100.875 21.552 101.234 22.4186 101.234 23.3221V88.7865C101.234 89.6901 100.875 90.5566 100.236 91.1956C99.5975 91.8345 98.7313 92.1934 97.8281 92.1934ZM77.172 21.3557C76.6507 21.3557 76.1508 21.5629 75.7821 21.9316C75.4136 22.3005 75.2065 22.8006 75.2065 23.3221V88.7865C75.2065 89.3081 75.4136 89.8082 75.7821 90.1769C76.1508 90.5457 76.6507 90.7528 77.172 90.7528H97.8281C98.3488 90.751 98.8477 90.5431 99.2159 90.1749C99.584 89.8065 99.7918 89.3074 99.7936 88.7865V23.3221C99.7936 22.8006 99.5865 22.3005 99.2179 21.9316C98.8493 21.5629 98.3494 21.3557 97.8281 21.3557H77.172Z" fill="#183154"/>
<path d="M109.7 20.8874C109.509 20.8874 109.327 20.8116 109.191 20.6764C109.056 20.5414 108.98 20.3583 108.98 20.1672V17.4086C108.98 17.2175 109.056 17.0344 109.191 16.8992C109.327 16.7642 109.509 16.6884 109.7 16.6884C109.891 16.6884 110.074 16.7642 110.21 16.8992C110.344 17.0344 110.42 17.2175 110.42 17.4086V20.1672C110.42 20.3583 110.344 20.5414 110.21 20.6764C110.074 20.8116 109.891 20.8874 109.7 20.8874Z" fill="#183154"/>
<path d="M109.7 24.1217C109.509 24.1217 109.327 24.0459 109.191 23.9108C109.056 23.7757 108.98 23.5926 108.98 23.4015V22.8037C108.98 22.6127 109.056 22.4295 109.191 22.2944C109.327 22.1593 109.509 22.0834 109.7 22.0834C109.891 22.0834 110.074 22.1593 110.21 22.2944C110.344 22.4295 110.42 22.6127 110.42 22.8037V23.4015C110.42 23.5926 110.344 23.7757 110.21 23.9108C110.074 24.0459 109.891 24.1217 109.7 24.1217Z" fill="#183154"/>
<path d="M133.042 92.1932H112.386C111.482 92.1932 110.617 91.8343 109.978 91.1955C109.34 90.5565 108.98 89.69 108.98 88.7864V25.8285C108.98 25.6374 109.056 25.4543 109.191 25.3192C109.327 25.1841 109.509 25.1082 109.7 25.1082C109.891 25.1082 110.074 25.1841 110.21 25.3192C110.344 25.4543 110.42 25.6374 110.42 25.8285V88.7864C110.423 89.3073 110.63 89.8064 110.998 90.1748C111.367 90.543 111.866 90.7509 112.386 90.7527H133.042C133.563 90.7527 134.063 90.5455 134.432 90.1768C134.8 89.8081 135.008 89.308 135.008 88.7864V87.2522C135.008 87.0612 135.083 86.8781 135.218 86.7429C135.354 86.6079 135.537 86.532 135.728 86.532C135.918 86.532 136.101 86.6079 136.237 86.7429C136.372 86.8781 136.447 87.0612 136.447 87.2522V88.7864C136.447 89.69 136.088 90.5565 135.45 91.1955C134.811 91.8343 133.945 92.1932 133.042 92.1932Z" fill="#183154"/>
<path d="M135.728 70.8808C135.537 70.8808 135.354 70.8049 135.218 70.6699C135.083 70.5348 135.008 70.3516 135.008 70.1605V3.40683C135.008 2.88534 134.8 2.3852 134.432 2.01644C134.063 1.64768 133.563 1.44052 133.042 1.44052H112.386C111.866 1.44242 111.367 1.65019 110.998 2.01854C110.63 2.38688 110.423 2.88591 110.42 3.40683V14.7726C110.42 14.9636 110.344 15.1468 110.21 15.2818C110.074 15.4169 109.891 15.4928 109.7 15.4928C109.509 15.4928 109.327 15.4169 109.191 15.2818C109.056 15.1468 108.98 14.9636 108.98 14.7726V3.40683C108.98 2.50328 109.34 1.63675 109.978 0.997838C110.617 0.358933 111.482 0 112.386 0H133.042C133.945 0 134.811 0.358933 135.45 0.997838C136.088 1.63675 136.447 2.50328 136.447 3.40683V70.1605C136.447 70.3516 136.372 70.5348 136.237 70.6699C136.101 70.8049 135.918 70.8808 135.728 70.8808Z" fill="#183154"/>
<path d="M120.579 17.2001C120.483 17.2125 120.387 17.1864 120.311 17.1277C120.235 17.069 120.184 16.9823 120.172 16.8868C120.16 16.7913 120.186 16.6947 120.244 16.6184C120.303 16.5421 120.391 16.4922 120.486 16.4799L120.694 16.4295C120.74 16.4177 120.788 16.4154 120.835 16.4225C120.882 16.4296 120.927 16.4461 120.967 16.4709C121.007 16.4958 121.042 16.5286 121.07 16.5672C121.097 16.6059 121.116 16.6496 121.126 16.6959C121.148 16.7886 121.132 16.8859 121.083 16.9669C121.032 17.0479 120.953 17.1059 120.86 17.128L120.672 17.1785L120.579 17.2001Z" fill="white"/>
<path d="M116.756 22.2276C116.709 22.2257 116.662 22.2145 116.619 22.1947C116.577 22.1748 116.537 22.1467 116.506 22.112C116.474 22.0771 116.449 22.0364 116.433 21.9919C116.416 21.9475 116.409 21.9003 116.411 21.8529C116.411 21.709 116.591 18.3382 119.456 16.8904C119.541 16.8476 119.64 16.8403 119.73 16.87C119.82 16.8997 119.895 16.964 119.939 17.0488C119.961 17.0907 119.974 17.1367 119.978 17.1839C119.982 17.2312 119.977 17.2787 119.962 17.3238C119.946 17.3689 119.923 17.4104 119.892 17.4461C119.861 17.4817 119.823 17.5108 119.78 17.5314C117.282 18.7991 117.13 21.8529 117.13 21.8529C117.132 21.9027 117.125 21.9523 117.106 21.9987C117.088 22.0451 117.06 22.0872 117.025 22.1223C116.99 22.1575 116.948 22.1851 116.902 22.2031C116.855 22.2212 116.806 22.2295 116.756 22.2276Z" fill="white"/>
<path d="M87.4964 48.8264C92.0691 48.8264 95.7761 45.118 95.7761 40.5434C95.7761 35.9689 92.0691 32.2604 87.4964 32.2604C82.9237 32.2604 79.2167 35.9689 79.2167 40.5434C79.2167 45.118 82.9237 48.8264 87.4964 48.8264Z" fill="#BDDFE9"/>
<path d="M87.4964 45.3833C92.0691 45.3833 95.7761 41.6749 95.7761 37.1003C95.7761 32.5258 92.0691 28.8173 87.4964 28.8173C82.9237 28.8173 79.2167 32.5258 79.2167 37.1003C79.2167 41.6749 82.9237 45.3833 87.4964 45.3833Z" fill="white"/>
<path d="M59.4391 67.7046C59.28 67.7041 59.1256 67.6509 58.9999 67.5533C58.9244 67.4954 58.861 67.4232 58.8136 67.3406C58.7661 67.2581 58.7354 67.167 58.7234 67.0726C58.7113 66.9781 58.7181 66.8822 58.7433 66.7904C58.7686 66.6986 58.8117 66.6128 58.8703 66.5377L79.404 40.0754C79.5247 39.9374 79.6935 39.8507 79.8759 39.8331C80.0583 39.8153 80.2406 39.8678 80.3856 39.9798C80.5307 40.0919 80.6276 40.255 80.6566 40.436C80.6855 40.6171 80.6444 40.8023 80.5415 40.9541L60.0079 67.4525C59.938 67.5344 59.8505 67.5996 59.7521 67.6431C59.6537 67.6868 59.5468 67.7077 59.4391 67.7046Z" fill="#183154"/>
<path d="M91.5138 30.0274C92.3104 31.5841 92.5931 33.3534 92.3213 35.081C92.0494 36.8084 91.237 38.4053 90.001 39.6419C88.7648 40.8785 87.1686 41.6912 85.4418 41.9632C83.7149 42.2351 81.9463 41.9523 80.3902 41.1554C80.9805 42.3243 81.8393 43.3364 82.8964 44.1089C83.9535 44.8814 85.1785 45.3922 86.4711 45.5993C87.7636 45.8064 89.0869 45.7039 90.3323 45.3004C91.5775 44.8967 92.7094 44.2035 93.6351 43.2775C94.5607 42.3515 95.2537 41.2192 95.6572 39.9733C96.0606 38.7275 96.163 37.4038 95.956 36.1106C95.749 34.8176 95.2384 33.5921 94.4663 32.5346C93.694 31.4771 92.6822 30.6179 91.5138 30.0274Z" fill="#BDDFE9"/>
<path d="M38.5741 6.78467L45.1331 20.0879L59.8133 22.2198L49.1937 32.5772L51.6992 47.1985L38.5741 40.2984L25.4489 47.1985L27.9545 32.5772L17.3348 22.2198L32.008 20.0879L38.5741 6.78467Z" fill="#8FDAFF"/>
<path d="M49.1937 32.8729L51.6993 47.5374L38.5741 40.5941L25.4489 47.5374L26.781 39.7514C31.813 39.0291 36.6583 37.3416 41.0508 34.7816C46.5236 31.5809 51.1483 27.1126 54.5359 21.7521L59.8133 22.5228L49.1937 32.8729Z" fill="#38609B"/>
<path d="M42.0373 15.1255C41.9031 15.1264 41.7713 15.0898 41.6568 15.0198C41.5423 14.9499 41.4496 14.8492 41.3893 14.7294L40.5469 13.0079C40.4689 12.8378 40.46 12.644 40.5222 12.4675C40.5846 12.291 40.7132 12.1457 40.8806 12.0623C41.0482 11.979 41.2416 11.9642 41.4198 12.021C41.5981 12.0779 41.7473 12.2019 41.8357 12.3668L42.6853 14.0883C42.7271 14.1735 42.7516 14.2659 42.7575 14.3605C42.7635 14.4552 42.7508 14.55 42.72 14.6397C42.6892 14.7294 42.6411 14.812 42.5783 14.8831C42.5154 14.954 42.4392 15.012 42.3541 15.0535C42.2553 15.1013 42.147 15.1259 42.0373 15.1255Z" fill="#183154"/>
<path d="M52.6568 49.1147L38.5742 41.7104L24.4914 49.1147L27.177 33.4274L15.787 22.3282L31.5328 20.0378L38.5742 5.76221L40.5756 9.82447C40.6538 9.99457 40.6626 10.1884 40.6003 10.3649C40.538 10.5414 40.4095 10.6867 40.2419 10.77C40.0744 10.8534 39.881 10.8682 39.7027 10.8114C39.5245 10.7545 39.3754 10.6305 39.287 10.4655L38.567 9.02498L32.4903 21.3486L18.8828 23.3222L28.7249 32.9232L26.3994 46.4857L38.5742 40.0826L50.7417 46.4857L48.4162 32.9232L58.2654 23.3222L44.6507 21.3486L43.9884 20.0018C43.9034 19.8307 43.8899 19.6331 43.9507 19.4521C44.0114 19.2711 44.1415 19.1217 44.3123 19.0366C44.3974 18.9948 44.4898 18.9703 44.5845 18.9643C44.679 18.9583 44.7738 18.971 44.8635 19.0018C44.9531 19.0326 45.0358 19.0808 45.1068 19.1436C45.1777 19.2065 45.2357 19.2827 45.277 19.3679L45.6083 20.0306L61.3614 22.3282L49.9642 33.4274L52.6568 49.1147Z" fill="#183154"/>
<path d="M43.5348 18.1649C43.4019 18.1645 43.2716 18.1273 43.1586 18.0573C43.0455 17.9874 42.9539 17.8876 42.8941 17.7688L42.6276 17.2286C42.5842 17.1429 42.558 17.0496 42.5506 16.9539C42.5431 16.8581 42.5546 16.7619 42.5843 16.6706C42.6141 16.5793 42.6615 16.4948 42.7239 16.4218C42.7863 16.3488 42.8625 16.2889 42.9481 16.2454C43.0336 16.2019 43.1269 16.1757 43.2226 16.1683C43.3184 16.1608 43.4145 16.1723 43.5058 16.202C43.597 16.2318 43.6815 16.2793 43.7544 16.3417C43.8275 16.4042 43.8874 16.4803 43.9308 16.5659L44.1972 17.1061C44.2821 17.2771 44.2956 17.4749 44.2349 17.6557C44.1741 17.8367 44.044 17.9862 43.8732 18.0713C43.7699 18.1299 43.6537 18.1621 43.5348 18.1649Z" fill="#183154"/>
<g opacity="0.15">
<path opacity="0.15" d="M37.4149 31.1586C39.9438 31.1586 41.994 29.1077 41.994 26.5777C41.994 24.0478 39.9438 21.9969 37.4149 21.9969C34.886 21.9969 32.8359 24.0478 32.8359 26.5777C32.8359 29.1077 34.886 31.1586 37.4149 31.1586Z" fill="white"/>
<path opacity="0.15" d="M32.1447 35.6311C33.4092 35.6311 34.4342 34.6057 34.4342 33.3407C34.4342 32.0757 33.4092 31.0503 32.1447 31.0503C30.8803 31.0503 29.8552 32.0757 29.8552 33.3407C29.8552 34.6057 30.8803 35.6311 32.1447 35.6311Z" fill="white"/>
</g>
<path d="M38.7974 17.034C39.0838 17.034 39.3584 16.9202 39.561 16.7175C39.7635 16.5149 39.8773 16.2402 39.8773 15.9536C39.8773 15.6671 39.7635 15.3923 39.561 15.1897C39.3584 14.9871 39.0838 14.8732 38.7974 14.8732C38.511 14.8732 38.2362 14.9871 38.0337 15.1897C37.8311 15.3923 37.7174 15.6671 37.7174 15.9536C37.7174 16.2402 37.8311 16.5149 38.0337 16.7175C38.2362 16.9202 38.511 17.034 38.7974 17.034Z" fill="#FDFEFF"/>
<path d="M35.2479 24.4887C35.6566 22.79 36.3452 21.1712 37.2854 19.699C37.8398 18.8129 36.4358 17.9991 35.8886 18.885C34.8745 20.4756 34.13 22.223 33.6855 24.0565C33.4551 25.0721 35.0102 25.497 35.2479 24.4887Z" fill="#FDFEFF"/>
<path d="M87.4964 46.0969C85.7158 46.0983 83.9749 45.5713 82.4937 44.5825C81.0126 43.5938 79.858 42.1877 79.176 40.5423C78.4939 38.8969 78.3151 37.086 78.6621 35.3389C79.0091 33.5918 79.8664 31.9869 81.1255 30.7273C82.3845 29.4678 83.9887 28.6102 85.7352 28.2629C87.4817 27.9158 89.2918 28.0947 90.9365 28.7771C92.5813 29.4594 93.9868 30.6145 94.9752 32.0961C95.9635 33.5778 96.4903 35.3195 96.4889 37.1008C96.4831 39.4849 95.5339 41.7698 93.8487 43.4557C92.1636 45.1416 89.8796 46.0911 87.4964 46.0969ZM87.4964 29.5309C86.0012 29.5295 84.5392 29.9715 83.2953 30.8015C82.0512 31.6312 81.0812 32.8114 80.5077 34.1928C79.9342 35.5741 79.783 37.0947 80.0733 38.5619C80.3636 40.0293 81.0824 41.3775 82.1385 42.4362C83.1948 43.4949 84.5412 44.2164 86.0073 44.5096C87.4735 44.8029 88.9936 44.6545 90.3755 44.0834C91.7574 43.5123 92.939 42.5441 93.7709 41.3012C94.6027 40.0583 95.0475 38.5965 95.049 37.1008C95.049 35.0956 94.2537 33.1724 92.8377 31.7532C91.4217 30.3339 89.5008 29.5347 87.4964 29.5309Z" fill="#183154"/>
<path d="M135.771 83.7447C135.58 83.7447 135.396 83.6688 135.262 83.5338C135.127 83.3986 135.05 83.2155 135.05 83.0245V78.5588C135.05 78.3678 135.127 78.1846 135.262 78.0495C135.396 77.9145 135.58 77.8386 135.771 77.8386C135.962 77.8386 136.145 77.9145 136.279 78.0495C136.415 78.1846 136.491 78.3678 136.491 78.5588V83.0245C136.491 83.2155 136.415 83.3986 136.279 83.5338C136.145 83.6688 135.962 83.7447 135.771 83.7447Z" fill="#183154"/>
<path d="M135.771 75.8361C135.58 75.8361 135.396 75.7602 135.262 75.6252C135.127 75.49 135.05 75.3069 135.05 75.1159V74.2588C135.05 74.0678 135.127 73.8845 135.262 73.7495C135.396 73.6143 135.58 73.5385 135.771 73.5385C135.962 73.5385 136.145 73.6143 136.279 73.7495C136.415 73.8845 136.491 74.0678 136.491 74.2588V75.1159C136.491 75.3069 136.415 75.49 136.279 75.6252C136.145 75.7602 135.962 75.8361 135.771 75.8361Z" fill="#183154"/>
</g>
</svg>
