<svg width="146" height="93" viewBox="0 0 146 93" fill="none" xmlns="http://www.w3.org/2000/svg">
<mask id="mask0_7_1314" style="mask-type:luminance" maskUnits="userSpaceOnUse" x="0" y="0" width="146" height="93">
<path d="M145.891 0H0V92.9539H145.891V0Z" fill="white"/>
</mask>
<g mask="url(#mask0_7_1314)">
<path d="M138.193 56.0316C133.037 70.7022 123.343 83.5551 109.879 89.2037C108.128 89.9372 106.34 90.5596 104.523 91.0675C94.917 93.759 84.4077 92.8227 75.5525 87.9184C71.7941 85.8353 68.367 83.0827 64.5951 81.0294C60.8231 78.9762 56.5157 77.6323 52.4103 78.6458C48.8754 79.5185 45.893 82.0193 42.8902 84.247C35.8114 89.4992 27.2998 93.6555 18.9176 91.8516C15.0606 91.0226 11.2625 88.7262 9.47129 84.8878C5.51216 76.4019 12.9789 66.3127 11.4667 56.928C10.4991 50.9216 6.07937 46.4237 3.3318 41.123C-1.37038 32.0561 -0.814513 20.0122 4.69878 11.5163C10.2121 3.02042 20.3901 -1.48622 29.7218 0.4411C41.1012 2.79228 49.7047 13.375 60.7698 17.12C67.6898 19.4599 75.2031 18.7618 81.8122 15.6801C92.4905 10.6998 107.161 3.06156 119.178 4.30571C125.568 4.96768 131.836 8.0843 136.053 13.4062C141.385 20.1244 142.984 29.6625 142.094 38.5212C141.484 44.518 140.173 50.4033 138.193 56.0316Z" fill="url(#paint0_linear_7_1314)"/>
<path d="M141.623 67.6355C141.386 67.6351 141.15 67.6038 140.92 67.542C140.192 67.3453 139.56 66.8507 139.153 66.1591C138.745 65.4675 138.593 64.631 138.728 63.8205C138.862 63.0101 139.274 62.2866 139.878 61.798C140.481 61.3094 141.232 61.0924 141.976 61.1913C142.72 61.2903 143.402 61.6977 143.882 62.3304C144.363 62.9631 144.605 63.7734 144.56 64.5958C144.515 65.4182 144.186 66.1908 143.64 66.7556C143.095 67.3206 142.373 67.6353 141.623 67.6355ZM141.623 62.6265C141.233 62.6281 140.858 62.7864 140.566 63.0715C140.275 63.3566 140.089 63.749 140.042 64.1746C139.997 64.6 140.093 65.0295 140.315 65.3821C140.537 65.7346 140.868 65.9858 141.247 66.0884C141.466 66.1464 141.694 66.1526 141.916 66.1067C142.137 66.061 142.347 65.9641 142.532 65.8225C142.717 65.681 142.874 65.498 142.989 65.2856C143.105 65.0732 143.18 64.8362 143.206 64.5902C143.233 64.3441 143.212 64.0947 143.145 63.8582C143.078 63.6217 142.965 63.4035 142.816 63.218C142.666 63.0325 142.483 62.8839 142.277 62.7819C142.072 62.68 141.849 62.627 141.623 62.6265Z" fill="#E7F6FF"/>
<path d="M138.938 71.0648C139.105 70.3067 138.682 69.543 137.991 69.3593C137.301 69.1754 136.607 69.641 136.439 70.3991C136.272 71.1572 136.695 71.9208 137.385 72.1046C138.076 72.2884 138.77 71.8229 138.938 71.0648Z" fill="#E7F6FF"/>
<path d="M6.26085 67.3274C5.48168 67.3087 4.74066 66.953 4.19868 66.3375C3.65669 65.7221 3.35747 64.8965 3.36599 64.0402C3.3745 63.1838 3.69006 62.3656 4.24416 61.7633C4.79824 61.161 5.54616 60.8232 6.32551 60.8232C7.10488 60.8232 7.85279 61.161 8.40688 61.7633C8.96098 62.3656 9.27653 63.1838 9.28505 64.0402C9.29356 64.8965 8.99434 65.7221 8.45236 66.3375C7.91037 66.953 7.16935 67.3087 6.39018 67.3274H6.26085ZM6.26085 62.3196H6.19392C5.7731 62.3297 5.37285 62.5217 5.08008 62.854C4.78732 63.1864 4.62566 63.6322 4.63022 64.0948C4.63477 64.5573 4.80517 64.9991 5.10442 65.3245C5.40366 65.6498 5.80759 65.8323 6.22852 65.8323C6.64945 65.8323 7.05338 65.6498 7.35263 65.3245C7.65188 64.9991 7.82227 64.5573 7.82683 64.0948C7.83139 63.6322 7.66974 63.1864 7.37696 62.854C7.08419 62.5217 6.68395 62.3297 6.26312 62.3196H6.26085Z" fill="#E7F6FF"/>
<path d="M4.15073 72.7854C4.85993 72.7518 5.41004 72.0928 5.37944 71.3134C5.34885 70.5341 4.74914 69.9295 4.03994 69.9631C3.33076 69.9968 2.78064 70.6558 2.81123 71.4352C2.84182 72.2145 3.44154 72.8191 4.15073 72.7854Z" fill="#E7F6FF"/>
<path d="M80.4395 14.7425C79.7332 14.7431 79.0501 14.466 78.5137 13.9611C77.9773 13.4562 77.6231 12.757 77.5152 11.9899C77.4075 11.2229 77.553 10.4388 77.9257 9.77947C78.2983 9.12018 78.8735 8.62929 79.547 8.39564C80.2204 8.16199 80.9478 8.20104 81.5973 8.50569C82.2469 8.81036 82.7758 9.36052 83.0882 10.0566C83.4006 10.7526 83.4759 11.5486 83.3005 12.3004C83.1252 13.0523 82.7106 13.7103 82.1321 14.1553C81.6359 14.5368 81.0451 14.7418 80.4395 14.7425ZM80.4305 9.73593C80.0172 9.73545 79.6198 9.91026 79.3209 10.2239C79.0221 10.5376 78.8449 10.9658 78.8264 11.4195C78.8078 11.8732 78.9492 12.3172 79.2213 12.6591C79.4933 13.0009 79.8748 13.2142 80.2865 13.2545C80.6981 13.2948 81.1079 13.159 81.4307 12.8753C81.7534 12.5917 81.9641 12.1821 82.0188 11.732C82.0734 11.2819 81.9679 10.8259 81.7243 10.4591C81.4806 10.0924 81.1175 9.84315 80.7107 9.76335C80.6182 9.74523 80.5244 9.73605 80.4305 9.73593Z" fill="#E7F6FF"/>
<path d="M74.405 14.565C74.9861 14.1171 75.1269 13.2363 74.7193 12.5975C74.3117 11.9589 73.5103 11.8042 72.9291 12.2521C72.3478 12.7 72.2072 13.5808 72.6146 14.2196C73.0222 14.8582 73.8238 15.0129 74.405 14.565Z" fill="#E7F6FF"/>
<path d="M145.887 31.4975C145.887 30.1268 145.391 28.8121 144.509 27.8428C143.627 26.8734 142.431 26.3289 141.183 26.3289C141.079 26.3289 140.976 26.3289 140.874 26.3401C140.88 26.2279 140.884 26.1144 140.884 25.9997C140.884 25.2652 140.741 24.539 140.465 23.8698C140.19 23.2005 139.788 22.6035 139.285 22.1185C138.783 21.6336 138.193 21.2718 137.553 21.0574C136.914 20.8428 136.241 20.7806 135.578 20.8748C134.914 20.969 134.278 21.2173 133.709 21.6033C133.14 21.9894 132.652 22.5043 132.279 23.1135C131.906 23.7229 131.655 24.4126 131.543 25.1368C131.432 25.8611 131.461 26.6032 131.631 27.3137C131.063 26.8608 130.41 26.5534 129.719 26.4141C129.028 26.2749 128.318 26.3074 127.641 26.5092C126.962 26.7109 126.335 27.077 125.802 27.5804C125.27 28.0838 124.848 28.7117 124.564 29.418C124.282 30.1245 124.147 30.8915 124.169 31.6628C124.192 32.4341 124.371 33.1899 124.694 33.8752C125.017 34.5604 125.475 35.1574 126.035 35.6224C126.596 36.0875 127.243 36.4088 127.932 36.5626C128.213 37.3814 128.679 38.1084 129.285 38.6755C129.891 39.2425 130.62 39.6311 131.399 39.8048C132.179 39.9784 132.988 39.9315 133.747 39.6685C134.506 39.4053 135.192 38.9346 135.741 38.3004C136.303 38.7662 136.952 39.0876 137.642 39.2409C138.331 39.3944 139.043 39.3759 139.724 39.1869C140.407 38.9979 141.041 38.6431 141.583 38.149C142.124 37.6547 142.556 37.0333 142.85 36.3307C143.743 35.9588 144.511 35.2974 145.054 34.4341C145.596 33.5708 145.887 32.5466 145.887 31.4975Z" fill="white"/>
<path d="M21.7185 19.0735C21.7191 18.3944 21.5979 17.7219 21.3619 17.0943C21.1259 16.4667 20.7796 15.8964 20.3429 15.4159C19.9063 14.9355 19.3877 14.5543 18.8169 14.2942C18.2461 14.034 17.6342 13.9 17.0163 13.8999C16.912 13.8999 16.8087 13.8999 16.7066 13.9111C16.7134 13.7989 16.7168 13.6855 16.7168 13.5708C16.7167 12.8362 16.5741 12.1101 16.2985 11.4408C16.0229 10.7715 15.6206 10.1745 15.1185 9.68957C14.6165 9.20461 14.026 8.84283 13.3866 8.62837C12.7473 8.4139 12.0736 8.35168 11.4107 8.44582C10.7478 8.53997 10.1107 8.78834 9.54196 9.17437C8.97322 9.5604 8.48591 10.0752 8.11249 10.6845C7.73906 11.2938 7.48813 11.9836 7.37639 12.7078C7.26464 13.4321 7.29468 14.1743 7.4645 14.8847C6.89606 14.4317 6.24253 14.1243 5.55187 13.9852C4.86121 13.8459 4.15095 13.8784 3.47321 14.0802C2.79547 14.282 2.16744 14.648 1.63523 15.1514C1.10301 15.6548 0.680111 16.2827 0.397558 16.9891C0.115007 17.6956 -0.0200262 18.4625 0.00237037 19.2338C0.0247669 20.005 0.204025 20.7609 0.526988 21.4461C0.849951 22.1314 1.30842 22.7284 1.86876 23.1934C2.4291 23.6584 3.07708 23.9798 3.76515 24.1336C4.04635 24.9517 4.51182 25.678 5.118 26.2445C5.72418 26.8111 6.45125 27.1993 7.23116 27.3729C8.01106 27.5466 8.8183 27.4998 9.57733 27.2373C10.3364 26.9747 11.0223 26.5048 11.5711 25.8715C12.1325 26.3372 12.7819 26.6586 13.4713 26.8119C14.1606 26.9654 14.8726 26.9469 15.5546 26.7578C16.2366 26.5688 16.8715 26.2142 17.4122 25.7199C17.953 25.2256 18.386 24.6044 18.6794 23.9018C19.5717 23.5306 20.3403 22.87 20.8831 22.0077C21.4259 21.1454 21.7172 20.122 21.7185 19.0735Z" fill="white"/>
<path d="M108.244 92.6171H40.576V90.9965H108.244C108.44 90.9965 108.627 91.0819 108.766 91.2337C108.904 91.3857 108.982 91.5919 108.982 91.8068C108.982 92.0217 108.904 92.2278 108.766 92.3797C108.627 92.5317 108.44 92.6171 108.244 92.6171Z" fill="#426572"/>
<path d="M37.5493 92.6171H33.4121C33.2165 92.6171 33.029 92.5317 32.8907 92.3797C32.7524 92.2278 32.6747 92.0217 32.6747 91.8068C32.6747 91.5919 32.7524 91.3857 32.8907 91.2337C33.029 91.0819 33.2165 90.9965 33.4121 90.9965H37.5493C37.7449 90.9965 37.9324 91.0819 38.0707 91.2337C38.209 91.3857 38.2867 91.5919 38.2867 91.8068C38.2867 92.0217 38.209 92.2278 38.0707 92.3797C37.9324 92.5317 37.7449 92.6171 37.5493 92.6171Z" fill="#426572"/>
<path d="M30.7269 92.6171H29.4087C29.2132 92.6171 29.0256 92.5317 28.8873 92.3797C28.7491 92.2278 28.6714 92.0217 28.6714 91.8068C28.6714 91.5919 28.7491 91.3857 28.8873 91.2337C29.0256 91.0819 29.2132 90.9965 29.4087 90.9965H30.7269C30.9225 90.9965 31.11 91.0819 31.2483 91.2337C31.3866 91.3857 31.4643 91.5919 31.4643 91.8068C31.4643 92.0217 31.3866 92.2278 31.2483 92.3797C31.11 92.5317 30.9225 92.6171 30.7269 92.6171Z" fill="#426572"/>
<path d="M131.972 92.6171H111.173V90.9965H131.972C132.167 90.9965 132.355 91.0819 132.494 91.2337C132.632 91.3857 132.709 91.5919 132.709 91.8068C132.709 92.0217 132.632 92.2278 132.494 92.3797C132.355 92.5317 132.167 92.6171 131.972 92.6171Z" fill="#426572"/>
<path d="M25.6379 92.6171H4.83829V90.9965H25.6379C25.8335 90.9965 26.021 91.0819 26.1593 91.2337C26.2976 91.3857 26.3753 91.5919 26.3753 91.8068C26.3753 92.0217 26.2976 92.2278 26.1593 92.3797C26.021 92.5317 25.8335 92.6171 25.6379 92.6171Z" fill="#426572"/>
<path d="M32.2289 29.366H107.988C109.355 29.366 110.667 29.9626 111.634 31.0249C112.601 32.0873 113.144 33.528 113.145 35.0307V88.9184H27.0718V35.0307C27.0724 33.528 27.616 32.0873 28.5831 31.0249C29.5502 29.9626 30.8616 29.366 32.2289 29.366Z" fill="#EBF0F9"/>
<path d="M110.153 33.4984H30.4048V83.5638H110.153V33.4984Z" fill="#637F91"/>
<path d="M29.8069 83.4703H110.493C110.493 83.8678 110.349 84.249 110.094 84.5307C109.839 84.8125 109.493 84.9718 109.131 84.9738H31.1739C30.811 84.9738 30.4631 84.8153 30.2065 84.5334C29.95 84.2515 29.8058 83.869 29.8058 83.4703H29.8069Z" fill="white"/>
<g opacity="0.5">
<path opacity="0.5" d="M54.2355 33.3113L42.3116 83.8455H36.3072L48.2311 33.3113H54.2355Z" fill="#A7BCD5"/>
<path opacity="0.5" d="M69.54 33.3113L57.6173 83.8455H45.0252L56.9491 33.3113H69.54Z" fill="#A7BCD5"/>
</g>
<path d="M113.826 89.6664H26.3912V32.6147C26.3924 31.5551 26.776 30.5393 27.4578 29.79C28.1395 29.0407 29.064 28.6192 30.0281 28.618H110.189C111.153 28.6192 112.077 29.0407 112.759 29.79C113.441 30.5393 113.824 31.5551 113.826 32.6147V89.6664ZM27.7525 88.1704H112.464V32.6147C112.464 31.9516 112.224 31.316 111.797 30.8471C111.37 30.3782 110.792 30.1146 110.189 30.114H30.0281C29.4248 30.1146 28.8463 30.3782 28.4196 30.8471C27.9931 31.316 27.753 31.9516 27.7525 32.6147V88.1704Z" fill="#426572"/>
<path d="M16.2165 87.1342H126.309V87.5319C126.309 88.8214 125.842 90.058 125.013 90.9698C124.183 91.8816 123.057 92.3938 121.884 92.3938H20.6408C19.4675 92.3938 18.3421 91.8816 17.5124 90.9698C16.6827 90.058 16.2165 88.8214 16.2165 87.5319V87.1342Z" fill="#EBF0F9"/>
<path opacity="0.5" d="M125.745 89.6699C125.503 90.3616 125.076 90.9562 124.52 91.3756C123.964 91.7948 123.305 92.0191 122.631 92.0186H19.208C18.5342 92.0186 17.8761 91.7941 17.3206 91.3748C16.765 90.9556 16.3383 90.3612 16.0963 89.6699H125.745Z" fill="#A7BCD5"/>
<path d="M121.371 92.9535H20.128C18.7745 92.9517 17.477 92.3602 16.52 91.3085C15.5629 90.2567 15.0246 88.8308 15.0231 87.3435V86.1979H126.477V87.3435C126.475 88.831 125.937 90.2572 124.979 91.3089C124.022 92.3607 122.724 92.9521 121.371 92.9535ZM16.3969 87.6939C16.4768 88.7205 16.9043 89.6769 17.595 90.3738C18.2857 91.0708 19.1892 91.4574 20.1269 91.4575H121.371C122.309 91.4574 123.212 91.0708 123.903 90.3738C124.593 89.6769 125.021 88.7205 125.101 87.6939H16.3969Z" fill="#426572"/>
<path d="M110.663 84.03H29.5517V32.7504H110.663V84.03ZM30.913 82.534H109.301V34.2463H30.913V82.534Z" fill="#426572"/>
<path d="M97.9629 17.4268V83.2823H43.6003V17.4268C43.6024 17.13 43.7106 16.8459 43.9016 16.6359C44.0927 16.426 44.3512 16.3071 44.6213 16.3048H96.9374C96.9991 16.3048 97.0606 16.3112 97.1212 16.3235C97.3563 16.3713 97.569 16.5075 97.7226 16.7088C97.8762 16.9102 97.9611 17.1641 97.9629 17.4268Z" fill="white"/>
<path d="M44.4557 21.7478H98.1342V17.7859L97.1076 16.2999H50.0972H45.4812L43.7716 17.7859V21.7478H44.4557Z" fill="#E2F2FF"/>
<path d="M98.8149 84.0303H43.091V17.4268C43.0928 16.9315 43.2726 16.457 43.5914 16.1067C43.9102 15.7564 44.3419 15.5588 44.7926 15.5568H97.1064C97.5572 15.5588 97.989 15.7564 98.3077 16.1067C98.6265 16.457 98.8063 16.9315 98.8081 17.4268L98.8149 84.0303ZM44.4523 82.5343H97.4536V17.4268C97.4513 17.3284 97.4147 17.2347 97.3514 17.1651C97.2881 17.0956 97.2028 17.0553 97.1133 17.0528H44.7972C44.7077 17.0553 44.6223 17.0956 44.559 17.1651C44.4957 17.2347 44.4591 17.3284 44.4568 17.4268L44.4523 82.5343Z" fill="#426572"/>
<path d="M94.79 18.6088H46.9696C46.5918 18.6088 46.2855 18.9452 46.2855 19.3605C46.2855 19.7756 46.5918 20.1122 46.9696 20.1122H94.79C95.1677 20.1122 95.474 19.7756 95.474 19.3605C95.474 18.9452 95.1677 18.6088 94.79 18.6088Z" fill="#CADCE8"/>
<path d="M61.4981 28.8024H50.3207V42.7986H61.4981V28.8024Z" fill="#E8837E"/>
<path d="M89.0566 28.8024H62.5531V42.7986H89.0566V28.8024Z" fill="#E8837E"/>
<path d="M89.0566 44.3479H76.5428V58.344H89.0566V44.3479Z" fill="#DDE4ED"/>
<path d="M75.4878 44.3479H50.4613V58.344H75.4878V44.3479Z" fill="#DDE4ED"/>
<path d="M89.1269 59.8936H50.4613V73.8897H89.1269V59.8936Z" fill="#DDE4ED"/>
<path d="M89.4684 75.7708H79.5536V77.2667H89.4684V75.7708Z" fill="#DDE4ED"/>
<path d="M35.3054 79.7154H19.0764C18.8091 79.7175 18.5458 79.6455 18.3107 79.506C17.9704 79.3015 17.7525 78.9662 17.7525 78.5884L17.7616 54.0719C17.7619 53.9114 17.801 53.754 17.8751 53.6156C18.0815 53.2216 18.5478 52.9449 19.0855 52.9449H35.3145C35.8817 52.9449 36.3593 53.2466 36.5499 53.6679C36.6076 53.7927 36.6379 53.9306 36.6384 54.0706L36.6304 78.5884C36.6304 79.1544 36.1324 79.6269 35.4892 79.7042C35.4282 79.7118 35.3668 79.7155 35.3054 79.7154Z" fill="white"/>
<path d="M35.7467 79.5273L19.512 79.5236C19.2449 79.5257 18.9815 79.4536 18.7463 79.3141C18.406 79.1097 18.1882 78.7744 18.1882 78.3966L18.1972 53.88C18.1975 53.7196 18.2366 53.5621 18.3107 53.4237C18.5171 53.0298 18.9834 52.7531 19.5211 52.7531H19.7423L19.7389 76.8932C19.7389 77.2672 19.959 77.6062 20.2971 77.8107C20.5322 77.9502 20.7956 78.0223 21.0628 78.0201H37.0717V78.3941C37.0717 78.9601 36.5737 79.4326 35.9305 79.5099C35.8696 79.5195 35.8082 79.5253 35.7467 79.5273Z" fill="#D6DEE9"/>
<path d="M35.5255 80.2752H19.2954C18.9127 80.2774 18.5356 80.1732 18.1995 79.9722C17.6323 79.6269 17.292 79.0385 17.292 78.4002L17.3011 53.8836C17.3024 53.5913 17.374 53.3044 17.5087 53.0521C17.849 52.4101 18.5296 52.0099 19.3067 52.0099H35.5357C36.3298 52.0099 37.0388 52.44 37.361 53.1082L37.4518 53.2615V53.3313C37.5105 53.5092 37.5405 53.697 37.5403 53.8861L37.5312 78.4027C37.5312 79.3427 36.7791 80.148 35.783 80.2614C35.6975 80.2713 35.6115 80.2759 35.5255 80.2752ZM19.3033 53.4996C18.9981 53.4996 18.7599 53.648 18.6839 53.7951C18.6691 53.82 18.6608 53.8489 18.6601 53.8786L18.651 78.3952C18.651 78.4775 18.7338 78.5822 18.8575 78.6582C18.9924 78.7367 19.1428 78.7769 19.2954 78.7754H35.5244C35.56 78.7757 35.5956 78.7736 35.631 78.7692C35.9714 78.7293 36.1687 78.5199 36.1687 78.3952L36.1778 53.8786C36.1778 53.8638 36.1756 53.8491 36.171 53.835L36.1075 53.7278C35.9506 53.5723 35.7446 53.4904 35.5335 53.4996H19.3044H19.3033Z" fill="#426572"/>
<path d="M33.6537 63.5536H22.6476V65.0496H33.6537V63.5536Z" fill="#426572"/>
<path d="M33.6537 60.4321H22.6476V61.9281H33.6537V60.4321Z" fill="#426572"/>
<path d="M33.6537 67.0905H22.6476V68.5865H33.6537V67.0905Z" fill="#426572"/>
<path opacity="0.2" d="M121.61 35.4048C122.403 33.7694 122.89 31.9759 123.042 30.1304C123.194 28.2847 123.008 26.4245 122.495 24.6591C121.982 22.8938 121.152 21.2594 120.055 19.852C118.958 18.4448 117.616 17.2933 116.107 16.4654C114.598 15.6375 112.954 15.15 111.271 15.0318C109.588 14.9137 107.901 15.1671 106.309 15.7771C104.716 16.3872 103.251 17.3416 102 18.5839C100.749 19.8263 99.7368 21.3314 99.0236 23.0107C98.0386 25.0433 97.5294 27.3133 97.5417 29.6161C97.5541 31.9191 98.0877 34.1824 99.0945 36.2021C100.101 38.2218 101.55 39.9344 103.309 41.1857C105.068 42.4369 107.083 43.1875 109.172 43.3697C108.808 43.4644 108.437 43.5412 108.062 43.6003C110.039 43.9136 112.056 43.7068 113.947 42.9968C115.837 42.2868 117.548 41.094 118.937 39.5163C120.049 38.3366 120.955 36.9431 121.61 35.4048Z" fill="#606060"/>
<path d="M108.764 40.1293C115.737 40.1293 121.39 33.9171 121.39 26.2541C121.39 18.591 115.737 12.3788 108.764 12.3788C101.791 12.3788 96.1377 18.591 96.1377 26.2541C96.1377 33.9171 101.791 40.1293 108.764 40.1293Z" fill="#A8EF9E"/>
<path d="M120.787 27.2455C120.787 29.2349 120.397 31.2009 119.645 33.0103C118.893 34.8197 117.795 36.4301 116.427 37.7325C115.059 39.0348 113.451 39.9986 111.714 40.5585C109.977 41.1184 108.15 41.2612 106.359 40.9774C109.363 40.5002 112.111 38.8492 114.098 36.3273C116.085 33.8053 117.179 30.581 117.179 27.2449C117.179 23.9089 116.085 20.6846 114.098 18.1626C112.111 15.6406 109.363 13.9898 106.359 13.5125C108.151 13.2285 109.977 13.3712 111.715 13.9311C113.452 14.491 115.06 15.4547 116.428 16.7572C117.796 18.0597 118.894 19.6704 119.646 21.48C120.4 23.2897 120.789 25.256 120.789 27.2455H120.787Z" fill="#A7E59C"/>
<path d="M108.463 41.5371C105.831 41.5371 103.259 40.6794 101.07 39.0726C98.882 37.4658 97.1764 35.1819 96.1693 32.51C95.1622 29.8379 94.8986 26.8977 95.4121 24.0611C95.9255 21.2245 97.1929 18.6188 99.0538 16.5737C100.915 14.5287 103.286 13.136 105.867 12.5717C108.448 12.0074 111.124 12.297 113.556 13.4039C115.987 14.5106 118.065 16.385 119.527 18.7898C120.989 21.1944 121.77 24.0217 121.77 26.9139C121.767 30.7909 120.363 34.5079 117.869 37.2494C115.374 39.9908 111.991 41.5327 108.463 41.5371ZM108.463 13.7879C106.101 13.7879 103.791 14.5579 101.827 16.0002C99.8622 17.4427 98.3312 19.4929 97.427 21.8915C96.5229 24.2902 96.2863 26.9297 96.7472 29.4761C97.2081 32.0226 98.3458 34.3616 100.016 36.1975C101.687 38.0334 103.816 39.2837 106.133 39.7902C108.45 40.2967 110.852 40.0366 113.035 39.0431C115.217 38.0495 117.082 36.367 118.395 34.2082C119.708 32.0495 120.409 29.5114 120.409 26.9152C120.405 23.4348 119.146 20.0979 116.907 17.6369C114.666 15.1757 111.63 13.7916 108.463 13.7879Z" fill="#426572"/>
<path d="M114.841 21.2404C114.569 21.0731 114.248 21.0282 113.946 21.1151C113.644 21.202 113.385 21.414 113.222 21.7065L111.036 25.6334L107.543 31.9016L107.446 32.0774L103.413 28.5319L102.678 27.8863C102.195 27.4624 101.468 27.329 101.004 27.8863C100.61 28.3587 100.488 29.2712 101.004 29.7249L106.19 34.2827L106.925 34.9285C107.23 35.1977 107.52 35.3448 107.919 35.2862C108.097 35.2623 108.267 35.1935 108.417 35.0854C108.567 34.9773 108.692 34.8328 108.783 34.6629L110.969 30.736L114.463 24.4691L115.27 23.0206C115.588 22.4397 115.398 21.567 114.841 21.2404Z" fill="white"/>
</g>
<defs>
<linearGradient id="paint0_linear_7_1314" x1="0.149745" y1="46.2741" x2="142.324" y2="46.2741" gradientUnits="userSpaceOnUse">
<stop stop-color="#C5E9FA"/>
<stop offset="1" stop-color="#C4F4EA"/>
</linearGradient>
</defs>
</svg>
