<svg width="113" height="93" viewBox="0 0 113 93" fill="none" xmlns="http://www.w3.org/2000/svg">
<mask id="mask0_7_1368" style="mask-type:luminance" maskUnits="userSpaceOnUse" x="0" y="0" width="113" height="93">
<path d="M112.723 0.274719H0.0618591V92.8244H112.723V0.274719Z" fill="white"/>
</mask>
<g mask="url(#mask0_7_1368)">
<path d="M3.66486 54.8793C2.48812 52.562 1.67109 50.0803 1.24168 47.5183C-0.729164 36.6623 3.76178 21.7476 11.1444 13.4365L14.5045 10.4889C15.1035 9.97177 15.7348 9.49297 16.3945 9.0554C25.4437 3.22142 36.168 0.521348 46.9104 1.37247C58.2181 2.26038 69.2536 5.28303 79.4293 10.2795C82.6565 11.6227 85.6413 13.4835 88.2657 15.7881C88.4653 15.9549 88.682 16.1007 88.912 16.2229L97.1506 21.506L97.4739 21.7315C105.196 27.5621 109.913 36.9203 111.528 46.5197C113.618 58.7157 111.078 71.2503 104.404 81.681C104.15 82.0583 103.839 82.395 103.483 82.6797L94.7599 89.509C92.9308 90.8897 90.7497 91.7307 88.4646 91.9357C86.1799 92.1407 83.8831 91.7017 81.8361 90.6687C80.7489 90.1817 79.7961 89.4393 79.0589 88.5053C78.3217 87.5713 77.8226 86.4733 77.6036 85.305C77.5397 83.7903 77.7089 82.275 78.1044 80.8113C78.5698 78.744 78.4351 76.5877 77.7169 74.594C77.3515 73.6 76.7461 72.7113 75.9544 72.0063C75.1627 71.301 74.2089 70.8013 73.1775 70.551C71.0075 70.3217 68.8287 70.895 67.0548 72.162C64.0179 73.982 61.3523 76.3817 58.3314 78.218C50.6324 82.601 41.5252 83.8257 32.9367 81.6327C24.6979 79.716 18.3977 75.19 11.9359 69.778C11.4737 69.3893 11.1087 68.8983 10.8697 68.3447L5.92647 61.0963L3.66486 54.8793Z" fill="white"/>
<g opacity="0.4">
<path opacity="0.4" d="M104.404 81.693C104.159 82.0776 103.847 82.4156 103.483 82.6916L94.7599 89.521C92.9318 90.9036 90.7504 91.7456 88.465 91.9506C86.1796 92.1556 83.8825 91.7156 81.8364 90.6806C80.7539 90.1906 79.8051 89.4496 79.0686 88.5193C78.3324 87.589 77.8303 86.4966 77.6039 85.3333C77.5668 83.8313 77.7574 82.3326 78.1693 80.8876C78.6333 78.8206 78.4989 76.6643 77.7815 74.6703C77.4154 73.6816 76.8116 72.7973 76.0229 72.0953C75.2343 71.3933 74.2852 70.8946 73.2581 70.6436C71.0837 70.4193 68.9016 70.992 67.1197 72.2543C64.0663 74.0906 61.4332 76.4906 58.3963 78.343C50.6895 82.7033 41.5914 83.9266 33.0014 81.7573C24.7788 79.8086 18.4624 75.3146 12.0006 69.8866C11.5426 69.4876 11.1786 68.9926 10.9344 68.437L6.73425 62.2036C13.6327 58.516 20.9712 55.7126 28.5751 53.8606C39.1241 51.4926 50.5936 51.847 60.2377 56.7436C63.3071 58.3543 66.1181 60.255 69.1065 61.946C77.5461 66.794 87.2972 68.8836 96.9891 67.9216C102.089 67.3373 107.026 65.773 111.528 63.3153C110.444 69.864 108.019 76.12 104.404 81.693Z" fill="#C9D2DF"/>
</g>
<g opacity="0.1">
<path opacity="0.1" d="M111.092 63.4773C106.587 65.926 101.65 67.4846 96.5528 68.068C86.8836 69.039 77.1516 66.9723 68.7187 62.1566C65.7463 60.4653 62.9193 58.4843 59.8499 56.9543C50.1573 52.1223 38.7359 51.7033 28.1872 54.071C20.5808 55.9153 13.2413 58.719 6.34634 62.4143L10.595 68.6316C10.8451 69.179 11.2084 69.6676 11.6611 70.065C15.502 73.506 19.7433 76.475 24.2939 78.9076C19.7266 76.486 15.4733 73.5163 11.6289 70.065C11.175 69.6686 10.8115 69.1796 10.5626 68.6316L5.61939 61.3673L3.29314 55.0376C2.11907 52.735 1.29687 50.27 0.853821 47.725C11.5241 37.864 25.1438 31.7646 39.6246 30.3619C44.6674 29.9592 49.7344 29.9592 54.7773 30.3619C74.8896 31.7632 95.4867 37.3843 111.431 49.2553C111.992 53.988 111.878 58.7763 111.092 63.4773Z" fill="#C9D2DF"/>
</g>
<path d="M25.5863 80.102C25.4512 80.1006 25.3184 80.0676 25.1986 80.0053C9.15723 71.7586 3.29315 59.9683 1.27385 51.5446C-0.109701 46.1373 -0.324456 40.499 0.643822 35.003C0.664556 34.892 0.707957 34.7866 0.771321 34.6933C0.834685 34.5996 0.916656 34.5203 1.01213 34.46C1.1076 34.3996 1.21453 34.3593 1.32626 34.342C1.43798 34.3243 1.55212 34.33 1.66155 34.3586C1.88169 34.4086 2.0731 34.5433 2.19412 34.7333C2.31514 34.9233 2.35598 35.1533 2.30773 35.3733C2.30773 35.647 -3.5402 63.3026 25.9901 78.4913C26.1607 78.5796 26.2964 78.723 26.3753 78.898C26.4542 79.073 26.4718 79.2693 26.4252 79.4553C26.3785 79.6413 26.2704 79.8063 26.1182 79.9236C25.966 80.041 25.7786 80.1036 25.5863 80.102Z" fill="#3E3126"/>
<path d="M3.63253 27.4469H3.39021C3.17428 27.38 2.99364 27.2307 2.88771 27.0316C2.78179 26.8324 2.75917 26.5995 2.8248 26.3838C2.90557 26.0456 11.2413 0.274719 43.0654 0.274719H44.277C44.3896 0.276815 44.5006 0.300976 44.6036 0.345823C44.7066 0.390673 44.7998 0.455326 44.8777 0.536096C44.956 0.616866 45.0171 0.712166 45.0583 0.816556C45.0994 0.920946 45.1194 1.03238 45.1171 1.14449C45.1151 1.25588 45.0907 1.36574 45.0456 1.46764C45.0004 1.56953 44.9352 1.66142 44.854 1.73792C44.7727 1.81441 44.6771 1.87398 44.5725 1.91313C44.4678 1.95229 44.3565 1.97024 44.2449 1.96593H43.0333C12.5336 1.98204 4.76333 25.8201 4.45639 26.8509C4.39892 27.0237 4.28849 27.1742 4.14066 27.2811C3.99286 27.388 3.81513 27.446 3.63253 27.4469Z" fill="#3E3126"/>
<path d="M107.199 35.0837C107.053 35.0837 106.91 35.0467 106.783 34.9763C106.656 34.9057 106.549 34.804 106.472 34.681C90.7534 8.55577 54.9876 3.04723 54.6161 2.99891C54.5045 2.98311 54.3975 2.94558 54.3005 2.88844C54.2036 2.83131 54.119 2.75571 54.0515 2.66595C53.9839 2.5762 53.9348 2.47405 53.907 2.36536C53.8793 2.25667 53.8729 2.14356 53.889 2.0325C53.9047 1.92195 53.9425 1.81565 54 1.71985C54.0575 1.62404 54.1337 1.54068 54.224 1.47465C54.3142 1.40862 54.4169 1.36126 54.5259 1.33535C54.6348 1.30945 54.7478 1.30552 54.8582 1.3238C55.2299 1.3238 91.8035 6.9773 107.942 33.795C108.05 33.9933 108.079 34.2253 108.022 34.4437C107.965 34.6623 107.827 34.851 107.635 34.971C107.503 35.049 107.352 35.088 107.199 35.0837Z" fill="#3E3126"/>
<path d="M89.6709 92.3237C89.4903 92.3217 89.3151 92.263 89.1701 92.156C89.025 92.049 88.9176 91.899 88.8631 91.7277C88.828 91.622 88.8143 91.5103 88.823 91.3993C88.8321 91.2883 88.8628 91.18 88.914 91.081C88.9651 90.982 89.0353 90.8943 89.1209 90.8226C89.2065 90.7513 89.3058 90.6973 89.4124 90.6646C102.61 86.493 107.731 75.6206 109.702 67.229C111.491 59.4683 111.524 51.408 109.799 43.6326C109.781 43.435 109.832 43.237 109.944 43.0726C110.056 42.9083 110.222 42.7883 110.413 42.733C110.605 42.6776 110.809 42.6906 110.992 42.7696C111.175 42.8486 111.324 42.9886 111.415 43.1656C113.256 49.6083 116.94 83.7546 89.8969 92.2753C89.8246 92.3033 89.7484 92.3196 89.6709 92.3237Z" fill="#3E3126"/>
<path d="M85.9071 92.824C84.0122 92.8216 82.1671 92.2203 80.6372 91.106C79.1074 89.9916 77.9717 88.4216 77.3937 86.6226C77.3542 86.5106 77.3375 86.392 77.3445 86.2733C77.3512 86.1546 77.3813 86.0386 77.4331 85.9316C77.4849 85.825 77.5571 85.729 77.6461 85.65C77.735 85.571 77.8386 85.5103 77.951 85.471C78.0633 85.432 78.1823 85.4153 78.3013 85.422C78.4204 85.4286 78.5367 85.4586 78.644 85.5103C78.751 85.562 78.8473 85.6343 78.9265 85.7226C79.0057 85.8113 79.0666 85.9146 79.106 86.0266C79.5631 87.492 80.4834 88.7703 81.7298 89.6703C82.9761 90.5703 84.4812 91.044 86.0201 91.02C86.2602 91.02 86.4902 91.115 86.6597 91.284C86.8295 91.4533 86.9248 91.6826 86.9248 91.922C86.9248 92.161 86.8295 92.3903 86.6597 92.5596C86.4902 92.7286 86.2602 92.824 86.0201 92.824H85.9071Z" fill="#3E3126"/>
<path d="M30.2223 81.987C30.7666 81.987 31.2077 81.5473 31.2077 81.0046C31.2077 80.462 30.7666 80.022 30.2223 80.022C29.6781 80.022 29.2369 80.462 29.2369 81.0046C29.2369 81.5473 29.6781 81.987 30.2223 81.987Z" fill="#3E3126"/>
<path d="M2.64695 31.7606C3.19119 31.7606 3.63238 31.3207 3.63238 30.7781C3.63238 30.2354 3.19119 29.7955 2.64695 29.7955C2.10272 29.7955 1.66153 30.2354 1.66153 30.7781C1.66153 31.3207 2.10272 31.7606 2.64695 31.7606Z" fill="#3E3126"/>
<path d="M109.815 40.543C110.36 40.543 110.801 40.1033 110.801 39.5607C110.801 39.018 110.36 38.578 109.815 38.578C109.271 38.578 108.83 39.018 108.83 39.5607C108.83 40.1033 109.271 40.543 109.815 40.543Z" fill="#3E3126"/>
<path d="M49.2038 2.70587C49.7481 2.70587 50.1891 2.26598 50.1891 1.72336C50.1891 1.18073 49.7481 0.740845 49.2038 0.740845C48.6596 0.740845 48.2183 1.18073 48.2183 1.72336C48.2183 2.26598 48.6596 2.70587 49.2038 2.70587Z" fill="#3E3126"/>
<path d="M51.1907 12.9537C51.9937 12.0396 53.0525 11.3858 54.2313 11.0766C55.4098 10.7675 56.6545 10.817 57.8045 11.2189C58.9546 11.6208 59.9579 12.3566 60.685 13.3317C61.4122 14.3068 61.8301 15.4766 61.8852 16.6905C61.905 17.283 61.8341 17.875 61.675 18.4462C61.2768 20.2227 60.1913 21.7708 58.6547 22.754C57.1182 23.7372 55.2544 24.0761 53.4688 23.697C52.641 23.4418 51.8774 23.0139 51.2285 22.4418C50.5796 21.8698 50.06 21.1666 49.7046 20.379C49.1965 19.1321 49.0664 17.764 49.3305 16.4441C49.595 15.1242 50.2416 13.9107 51.1907 12.9537Z" fill="#4DF58C"/>
<path d="M32.6779 11.4377C33.4798 10.5242 34.5372 9.87066 35.7147 9.56093C36.8918 9.25116 38.1348 9.29936 39.2846 9.69929C40.4339 10.0992 41.4376 10.8327 42.1657 11.8054C42.8942 12.7782 43.3144 13.9458 43.3723 15.1583C43.393 15.7561 43.3221 16.3536 43.162 16.9301C42.7601 18.7037 41.6733 20.2478 40.1371 21.2278C38.6009 22.2077 36.7394 22.5443 34.9558 22.1648C34.1287 21.9123 33.3661 21.4853 32.7194 20.9128C32.0727 20.3402 31.5572 19.6356 31.2079 18.8468C30.6927 17.6049 30.5574 16.2389 30.819 14.9205C31.0806 13.6022 31.7273 12.3904 32.6779 11.4377Z" fill="#42CAF8"/>
<path d="M67.6683 18.8808C68.4713 17.9666 69.5301 17.3129 70.7086 17.0037C71.8874 16.6945 73.1317 16.7441 74.2818 17.146C75.4322 17.5479 76.4351 18.2837 77.1626 19.2588C77.8898 20.2339 78.3077 21.4037 78.3625 22.6176C78.3976 23.2318 78.3267 23.8475 78.1526 24.4377C77.7581 26.213 76.6759 27.761 75.1417 28.7444C73.6078 29.7279 71.746 30.0672 69.9624 29.6885C69.1323 29.438 68.3663 29.0119 67.7168 28.4393C67.0672 27.8667 66.5493 27.161 66.1983 26.3705C65.6881 25.1251 65.5554 23.7579 65.8168 22.4381C66.0779 21.1183 66.7218 19.9039 67.6683 18.9453V18.8808Z" fill="#FF7769"/>
<path d="M13.5996 26.8356C18.6559 20.6989 26.8624 23.4371 26.7332 31.6677C26.724 32.5499 26.5991 33.427 26.3616 34.277C24.7462 40.0593 19.8998 43.78 15.7158 42.556C14.651 42.203 13.6877 41.5983 12.9084 40.7933C12.1291 39.988 11.557 39.0066 11.2411 37.9333C10.697 36.045 10.6275 34.052 11.0389 32.1307C11.4502 30.2093 12.3297 28.4184 13.5996 26.9162V26.8356Z" fill="#FFE56B"/>
<path d="M68.0568 19.3465C68.601 19.3465 69.042 18.9066 69.042 18.364C69.042 17.8214 68.601 17.3815 68.0568 17.3815C67.5125 17.3815 67.0712 17.8214 67.0712 18.364C67.0712 18.9066 67.5125 19.3465 68.0568 19.3465Z" fill="#3E3126"/>
<path d="M71.982 30.9926C71.3318 30.9896 70.6849 30.8975 70.0597 30.7188C69.1326 30.4453 68.2724 29.9836 67.5329 29.3627C66.7934 28.7418 66.1906 27.9751 65.7627 27.1109C64.8587 25.3307 64.6738 23.2728 65.2458 21.3607C65.3057 21.1471 65.4484 20.9661 65.6423 20.8573C65.8362 20.7486 66.0656 20.7211 66.2795 20.7809C66.4938 20.8407 66.6754 20.9829 66.7847 21.1762C66.8937 21.3695 66.9211 21.5981 66.8613 21.8117C66.4066 23.3267 66.551 24.9579 67.2651 26.3699C67.5884 27.0362 68.0484 27.6272 68.6154 28.1049C69.1824 28.5825 69.8437 28.936 70.5565 29.1425C71.2693 29.3491 72.0175 29.404 72.753 29.3037C73.4881 29.2034 74.1942 28.9502 74.8254 28.5605C76.1764 27.7324 77.169 26.4312 77.6079 24.9117C78.0472 23.3923 77.9018 21.7641 77.2001 20.346C76.8821 19.6888 76.4308 19.1047 75.8748 18.6306C75.3185 18.1564 74.6696 17.8027 73.9692 17.5917C73.7549 17.5298 73.5741 17.3856 73.4667 17.1907C73.3591 16.9959 73.3337 16.7664 73.3955 16.5529C73.4577 16.3393 73.6025 16.159 73.798 16.0518C73.9933 15.9446 74.2233 15.9191 74.4376 15.9811C75.349 16.2672 76.1918 16.7363 76.9139 17.3596C77.6364 17.9829 78.2231 18.7471 78.6377 19.6051C79.5096 21.3964 79.6851 23.4461 79.1301 25.3587C78.5751 27.2713 77.3295 28.9112 75.6331 29.9618C74.5315 30.6274 73.2702 30.9836 71.982 30.9926Z" fill="#3E3126"/>
<path d="M37.0881 23.8536C36.4425 23.8577 35.7999 23.7654 35.1818 23.5797C34.2467 23.2832 33.3797 22.8058 32.63 22.1749C31.8803 21.5439 31.2627 20.7718 30.8126 19.9026C30.3625 19.0334 30.0886 18.0843 30.0067 17.1095C29.9249 16.1347 30.0366 15.1534 30.3354 14.2217C30.7307 12.7982 31.5291 11.5186 32.635 10.5359C33.7409 9.5532 35.1076 8.9092 36.5712 8.68097C36.7695 8.6815 36.9607 8.75337 37.1105 8.88334C37.2599 9.0133 37.3572 9.19267 37.3846 9.3885C37.412 9.58434 37.3679 9.7835 37.2599 9.9494C37.1519 10.1153 36.9878 10.2368 36.7972 10.2916C35.6535 10.4828 34.589 10.9973 33.7298 11.7739C32.8709 12.5504 32.2534 13.5566 31.9509 14.6727C31.4637 16.1273 31.5744 17.7151 32.2586 19.0886C32.9428 20.4621 34.1451 21.5094 35.6017 22.0013C37.0971 22.3715 38.6784 22.1351 39.999 21.3439C41.3196 20.5527 42.271 19.2714 42.6451 17.7813C42.9524 16.767 42.9905 15.6905 42.7555 14.6572C42.5204 13.6239 42.0206 12.6691 41.3042 11.8862C41.2233 11.8093 41.1591 11.7168 41.1149 11.6143C41.0712 11.5118 41.0484 11.4015 41.0488 11.29C41.0491 11.1786 41.0718 11.0683 41.1163 10.966C41.1604 10.8636 41.2253 10.7714 41.3065 10.6948C41.3878 10.6182 41.4837 10.5588 41.5887 10.5204C41.6937 10.482 41.8053 10.4653 41.917 10.4713C42.0286 10.4772 42.1376 10.5058 42.2379 10.5552C42.3382 10.6047 42.4272 10.6739 42.4997 10.7587C43.4137 11.7477 44.0536 12.9569 44.3565 14.2673C44.6597 15.5777 44.6156 16.9441 44.2281 18.2323C43.8019 19.8099 42.8771 21.2085 41.591 22.221C40.3049 23.2335 38.7259 23.806 37.0881 23.8536Z" fill="#3E3126"/>
<path d="M55.2778 25.1769C54.6322 25.1811 53.9896 25.0888 53.3715 24.9031C52.4411 24.6379 51.5762 24.1813 50.8333 23.5626C50.0905 22.944 49.486 22.1771 49.0584 21.3113C48.1481 19.5278 47.9572 17.4644 48.5252 15.545C48.5887 15.3388 48.7311 15.1657 48.9217 15.0632C49.1119 14.9608 49.3352 14.9371 49.5428 14.9974C49.6482 15.0251 49.7464 15.0738 49.8324 15.1403C49.9179 15.2069 49.9895 15.29 50.0423 15.3848C50.0951 15.4795 50.1282 15.5839 50.1396 15.6917C50.151 15.7995 50.1403 15.9085 50.1085 16.0121C49.6535 17.5271 49.7983 19.1583 50.5124 20.5703C50.8313 21.2425 51.2883 21.8401 51.8543 22.3245C52.42 22.8089 53.0816 23.1692 53.7964 23.3818C54.5108 23.5945 55.2624 23.6549 56.0019 23.559C56.7414 23.4631 57.4525 23.2131 58.0887 22.8253C59.4387 22.0001 60.4306 20.7018 60.8699 19.1851C61.3092 17.6683 61.1641 16.0426 60.4634 14.6269C59.8833 13.4165 58.8593 12.4743 57.6029 11.9948C56.3462 11.5152 54.9531 11.5349 53.7108 12.0498C53.4965 12.131 53.2588 12.124 53.0498 12.0304C52.8406 11.9367 52.6774 11.7641 52.5962 11.5505C52.5146 11.3369 52.5216 11.0999 52.6156 10.8914C52.7095 10.683 52.8827 10.5203 53.097 10.4392C54.7231 9.77577 56.5415 9.75457 58.183 10.3798C59.8242 11.0051 61.1651 12.2299 61.9334 13.8055C62.8053 15.5968 62.9805 17.6465 62.4255 19.5591C61.8709 21.4717 60.6249 23.1115 58.9289 24.1622C57.8266 24.8244 56.5646 25.1751 55.2778 25.1769Z" fill="#3E3126"/>
<path d="M102.414 70.2756C104.235 64.004 101.835 57.8003 97.0536 56.4196C92.2715 55.039 86.9184 59.004 85.097 65.2756C83.2753 71.5473 85.6754 77.7506 90.4572 79.1313C95.2393 80.512 100.592 76.5473 102.414 70.2756Z" fill="white"/>
<path d="M92.2555 80.908C91.5069 80.9126 90.7614 80.8096 90.0423 80.602C84.7761 79.072 82.0945 72.3713 84.0489 65.6226C86.0037 58.874 91.8677 54.638 97.1342 56.168C102.4 57.6983 105.066 64.3986 103.111 71.1473C102.27 74.2303 100.444 76.956 97.9095 78.911C96.2917 80.17 94.3075 80.871 92.2555 80.908ZM94.921 57.65C91.1248 57.65 87.2638 61.113 85.7938 66.1383C84.1783 71.9043 86.2461 77.6223 90.5431 78.8626C91.629 79.1326 92.763 79.145 93.8542 78.8986C94.9457 78.6526 95.9637 78.1546 96.8273 77.445C99.0425 75.726 100.636 73.3343 101.367 70.632C102.982 64.8496 100.914 59.1316 96.6334 57.8913C96.0768 57.7313 95.5004 57.65 94.921 57.65Z" fill="#3E3126"/>
<path opacity="0.4" d="M51.9569 55.2783C52.7586 52.5183 50.1573 49.3423 46.1465 48.1843C42.136 47.0263 38.2348 48.325 37.4331 51.085C36.6317 53.8446 39.2331 57.0206 43.2439 58.1786C47.2544 59.3366 51.1556 58.038 51.9569 55.2783Z" fill="#C9D2DF"/>
<path opacity="0.4" d="M59.898 59.2877C61.2005 59.2877 62.2566 58.235 62.2566 56.9363C62.2566 55.6373 61.2005 54.5847 59.898 54.5847C58.5955 54.5847 57.5394 55.6373 57.5394 56.9363C57.5394 58.235 58.5955 59.2877 59.898 59.2877Z" fill="#C9D2DF"/>
<path opacity="0.2" d="M55.359 52.0576C56.2065 52.0576 56.8935 51.3726 56.8935 50.5276C56.8935 49.6823 56.2065 48.9973 55.359 48.9973C54.5115 48.9973 53.8245 49.6823 53.8245 50.5276C53.8245 51.3726 54.5115 52.0576 55.359 52.0576Z" fill="#C9D2DF"/>
<path opacity="0.4" d="M23.8412 61.529C26.268 61.529 28.2352 59.5676 28.2352 57.148C28.2352 54.7283 26.268 52.767 23.8412 52.767C21.4145 52.767 19.4472 54.7283 19.4472 57.148C19.4472 59.5676 21.4145 61.529 23.8412 61.529Z" fill="#C9D2DF"/>
<path opacity="0.2" d="M33.6152 50.2537C34.4092 50.2537 35.0531 49.612 35.0531 48.8203C35.0531 48.0287 34.4092 47.3867 33.6152 47.3867C32.8212 47.3867 32.1775 48.0287 32.1775 48.8203C32.1775 49.612 32.8212 50.2537 33.6152 50.2537Z" fill="#C9D2DF"/>
<path d="M35.1841 14.001C35.7665 13.5168 35.9654 12.7975 35.6284 12.3944C35.2911 11.9913 34.5459 12.057 33.9635 12.5412C33.3809 13.0254 33.182 13.7448 33.5192 14.1479C33.8562 14.551 34.6017 14.4852 35.1841 14.001Z" fill="white"/>
<path d="M37.2171 13.2741C37.4401 13.2741 37.621 13.0938 37.621 12.8714C37.621 12.649 37.4401 12.4687 37.2171 12.4687C36.9941 12.4687 36.8133 12.649 36.8133 12.8714C36.8133 13.0938 36.9941 13.2741 37.2171 13.2741Z" fill="white"/>
<path d="M53.35 14.712C53.9324 14.2278 54.1314 13.5084 53.7944 13.1053C53.457 12.7022 52.7118 12.768 52.1291 13.2522C51.5467 13.7364 51.3478 14.4557 51.6848 14.8588C52.0221 15.2619 52.7673 15.1962 53.35 14.712Z" fill="white"/>
<path d="M55.375 13.985C55.598 13.985 55.7789 13.8047 55.7789 13.5824C55.7789 13.36 55.598 13.1797 55.375 13.1797C55.1521 13.1797 54.9712 13.36 54.9712 13.5824C54.9712 13.8047 55.1521 13.985 55.375 13.985Z" fill="white"/>
<path d="M71.5544 19.8838C72.1368 19.3996 72.3357 18.6803 71.9987 18.2772C71.6617 17.8741 70.9162 17.9398 70.3338 18.4241C69.7514 18.9083 69.5525 19.6276 69.8895 20.0307C70.2265 20.4338 70.972 20.368 71.5544 19.8838Z" fill="white"/>
<path d="M73.5971 19.1504C73.8201 19.1504 74.001 18.9701 74.001 18.7477C74.001 18.5253 73.8201 18.345 73.5971 18.345C73.3738 18.345 73.1933 18.5253 73.1933 18.7477C73.1933 18.9701 73.3738 19.1504 73.5971 19.1504Z" fill="white"/>
<path d="M84.7119 30.6062C85.5163 29.704 86.5711 29.0605 87.7432 28.7575C88.915 28.4545 90.1506 28.5056 91.2933 28.9043C92.436 29.3031 93.434 30.0315 94.1605 30.997C94.8873 31.9625 95.3095 33.1216 95.3737 34.327C95.3948 34.9247 95.3239 35.5223 95.1638 36.0987C94.7656 37.871 93.6821 39.415 92.1482 40.3953C90.6147 41.3753 88.7552 41.7127 86.9736 41.3333C86.1438 41.083 85.3779 40.6567 84.7283 40.0843C84.0787 39.5117 83.5605 38.806 83.2095 38.0153C82.6987 36.7727 82.5656 35.4077 82.827 34.0903C83.0885 32.7729 83.7327 31.5613 84.6795 30.6062H84.7119Z" fill="#F78A11"/>
<path d="M85.0994 31.0679C85.6436 31.0679 86.0846 30.628 86.0846 30.0853C86.0846 29.5427 85.6436 29.1028 85.0994 29.1028C84.5551 29.1028 84.1138 29.5427 84.1138 30.0853C84.1138 30.628 84.5551 31.0679 85.0994 31.0679Z" fill="#3E3126"/>
<path d="M89.0246 42.702C88.3744 42.699 87.7275 42.607 87.1023 42.428C85.2164 41.8257 83.6474 40.502 82.7391 38.748C81.8304 36.9937 81.6569 34.9517 82.256 33.0701C82.2857 32.9643 82.3359 32.8654 82.4038 32.779C82.472 32.6927 82.5562 32.6205 82.6525 32.5666C82.7484 32.5128 82.8541 32.4783 82.9634 32.4652C83.0727 32.4521 83.1837 32.4606 83.2897 32.4902C83.3957 32.5198 83.495 32.57 83.5816 32.6378C83.6682 32.7056 83.7407 32.7898 83.7945 32.8855C83.8487 32.9813 83.8831 33.0867 83.8965 33.1957C83.9095 33.3047 83.9012 33.4153 83.8714 33.521C83.3907 34.982 83.5104 36.5733 84.2037 37.9467C84.8968 39.3203 86.1077 40.364 87.5707 40.8497C88.2828 41.055 89.03 41.1093 89.7645 41.0093C90.499 40.9097 91.2044 40.6577 91.8356 40.2697C93.1919 39.4527 94.1855 38.151 94.6141 36.6297C94.8568 35.9043 94.9538 35.138 94.8993 34.3753C94.8448 33.6123 94.6395 32.8678 94.2962 32.184C93.9525 31.5003 93.4768 30.8908 92.8967 30.3906C92.3163 29.8904 91.643 29.5092 90.9145 29.2689C90.7006 29.2069 90.5197 29.0627 90.4121 28.8678C90.3047 28.673 90.279 28.4436 90.3412 28.23C90.4034 28.0164 90.5481 27.8361 90.7434 27.7289C90.9389 27.6217 91.169 27.5962 91.3833 27.6582C93.2688 28.2607 94.8378 29.5842 95.7465 31.3384C96.6548 33.0926 96.8287 35.1343 96.2296 37.0163C95.6849 38.942 94.4259 40.589 92.7078 41.6227C91.6022 42.3117 90.3281 42.685 89.0246 42.702Z" fill="#3E3126"/>
<path d="M88.6057 31.6182C89.1881 31.134 89.387 30.4147 89.05 30.0116C88.713 29.6085 87.9675 29.6742 87.3851 30.1584C86.8027 30.6426 86.6038 31.3619 86.9408 31.765C87.2778 32.1681 88.0233 32.1024 88.6057 31.6182Z" fill="white"/>
<path d="M90.6404 30.8783C90.8634 30.8783 91.0443 30.698 91.0443 30.4756C91.0443 30.2532 90.8634 30.0729 90.6404 30.0729C90.4174 30.0729 90.2365 30.2532 90.2365 30.4756C90.2365 30.698 90.4174 30.8783 90.6404 30.8783Z" fill="white"/>
<path d="M18.1257 27.057C18.7081 26.5728 18.907 25.8535 18.5699 25.4504C18.2329 25.0473 17.4874 25.113 16.905 25.5972C16.3225 26.0814 16.1236 26.8007 16.4607 27.2038C16.7978 27.6069 17.5432 27.5412 18.1257 27.057Z" fill="white"/>
<path d="M20.1587 26.3353C20.3817 26.3353 20.5626 26.155 20.5626 25.9326C20.5626 25.7102 20.3817 25.5299 20.1587 25.5299C19.9357 25.5299 19.7549 25.7102 19.7549 25.9326C19.7549 26.155 19.9357 26.3353 20.1587 26.3353Z" fill="white"/>
<path d="M26.4906 34.8733C24.8752 40.6557 20.0288 44.3763 15.8287 43.1683C14.3214 42.7007 13.0428 41.69 12.2424 40.3333C12.3071 40.175 12.3883 40.024 12.4847 39.8823C13.5505 37.651 15.2315 35.7683 17.331 34.4543C19.8027 33.182 22.7266 33.3593 25.4083 33.1176C25.8283 33.1176 26.2321 33.0371 26.6683 32.9727C26.6805 33.6107 26.6209 34.2483 26.4906 34.8733Z" fill="#FFB320"/>
<path d="M17.9291 44.0986C17.2757 44.0746 16.6288 43.9606 16.0067 43.7603C11.4188 42.4233 9.06028 36.625 10.7404 30.8748C11.3237 28.8511 12.375 26.992 13.8097 25.4468C13.9576 25.3157 14.1495 25.2447 14.3473 25.2476C14.5452 25.2506 14.7348 25.3273 14.8788 25.4628C15.0227 25.5982 15.1105 25.7825 15.125 25.9793C15.1394 26.1761 15.0793 26.3711 14.9567 26.526C13.6823 27.898 12.7571 29.5552 12.2589 31.358C10.805 36.351 12.6789 41.2959 16.4429 42.375C20.2069 43.4543 24.4232 40.2813 25.8771 35.288C26.5917 32.9802 26.5293 30.5025 25.6994 28.2333C25.3865 27.3078 24.8615 26.4677 24.166 25.7799C23.4706 25.0921 22.6238 24.5755 21.6931 24.271C21.4939 24.2133 21.3258 24.0791 21.2258 23.8979C21.1258 23.7167 21.1021 23.5032 21.16 23.3046C21.2178 23.106 21.3524 22.9384 21.5342 22.8387C21.716 22.739 21.93 22.7154 22.1292 22.7731C23.2872 23.1309 24.3449 23.7544 25.2174 24.5935C26.09 25.4327 26.753 26.4642 27.1533 27.6051C28.1242 30.1899 28.2038 33.0236 27.3795 35.6586C25.9094 40.684 21.9354 44.0823 17.9291 44.0986Z" fill="#3E3126"/>
<path d="M72.6443 70.466C72.659 70.6643 72.659 70.8636 72.6443 71.062C72.0335 70.9036 71.3996 70.849 70.7704 70.901H70.1727C69.2393 70.9793 68.3262 71.2193 67.4751 71.6096C67.243 71.6983 67.0164 71.8003 66.7964 71.9156C65.7175 72.424 64.6989 73.0506 63.7594 73.784C61.8856 75.0726 60.0923 76.5223 58.2184 77.7946L58.0409 77.9073C54.5158 79.9983 50.6588 81.4746 46.6359 82.2723C46.6359 81.612 46.5226 80.9676 46.4741 80.3073C46.1511 74.8633 48.6873 69.0326 53.6145 66.5843C55.7551 65.7746 57.9596 65.1443 60.2056 64.7C61.933 64.1113 63.6976 63.6376 65.4879 63.2823C66.5647 63.113 67.6646 63.1676 68.7191 63.4436C69.252 63.7333 69.8012 63.9913 70.3345 64.249L70.512 64.3776C71.3231 65.1536 71.9389 66.1093 72.3093 67.1673C72.6797 68.2253 72.7947 69.3556 72.6443 70.466Z" fill="#FF9E3E"/>
<path d="M40.9812 83.512C39.2755 83.536 37.5712 83.396 35.8926 83.093C35.7261 83.0073 35.5923 82.8696 35.5118 82.701C35.4315 82.5323 35.4088 82.3417 35.4473 82.159C35.4857 81.976 35.5833 81.811 35.7251 81.6886C35.8668 81.5663 36.0447 81.494 36.2319 81.4823C41.1504 82.1476 46.1542 81.7743 50.9186 80.387C55.6833 78.9996 60.102 76.629 63.8881 73.429C65.2956 72.2096 66.8877 71.2203 68.6054 70.4976C70.0594 69.9336 73.6941 68.887 76.3272 70.852C78.5564 72.5753 79.3641 76.0223 78.7343 81.112C78.6985 81.3326 78.5802 81.5313 78.4033 81.669C78.2268 81.8063 78.0045 81.872 77.7811 81.853C77.5565 81.8246 77.3519 81.709 77.2128 81.5306C77.0734 81.3526 77.0105 81.1266 77.0379 80.9026C77.5872 76.5213 77.0379 73.5096 75.2771 72.1886C73.5162 70.868 70.4308 71.625 69.2353 72.076C67.6877 72.7336 66.2541 73.6303 64.9867 74.7336C58.2786 80.3993 49.7728 83.5096 40.9812 83.512Z" fill="#3E3126"/>
<path d="M53.6306 71.098C55.6114 71.098 57.2171 69.497 57.2171 67.5223C57.2171 65.5477 55.6114 63.9467 53.6306 63.9467C51.65 63.9467 50.0443 65.5477 50.0443 67.5223C50.0443 69.497 51.65 71.098 53.6306 71.098Z" fill="#FF9E3E"/>
<path d="M67.7492 64.654C68.7394 64.654 69.5421 63.8533 69.5421 62.866C69.5421 61.8787 68.7394 61.078 67.7492 61.078C66.7586 61.078 65.9559 61.8787 65.9559 62.866C65.9559 63.8533 66.7586 64.654 67.7492 64.654Z" fill="#FF9E3E"/>
<path d="M46.894 79.228C47.92 79.228 48.7518 78.3986 48.7518 77.3756C48.7518 76.3526 47.92 75.5233 46.894 75.5233C45.868 75.5233 45.0365 76.3526 45.0365 77.3756C45.0365 78.3986 45.868 79.228 46.894 79.228Z" fill="#FF9E3E"/>
<path d="M42.031 71.9473C42.6645 71.9473 43.178 71.4353 43.178 70.8036C43.178 70.172 42.6645 69.66 42.031 69.66C41.3978 69.66 40.8843 70.172 40.8843 70.8036C40.8843 71.4353 41.3978 71.9473 42.031 71.9473Z" fill="#FF9E3E"/>
<path d="M46.3283 67.2276C46.8813 67.2276 47.33 66.7806 47.33 66.229C47.33 65.6776 46.8813 65.2303 46.3283 65.2303C45.775 65.2303 45.3267 65.6776 45.3267 66.229C45.3267 66.7806 45.775 67.2276 46.3283 67.2276Z" fill="#FF9E3E"/>
<path d="M75.8916 58.1636H75.7137C75.5974 58.117 75.5037 58.027 75.4526 57.913C75.4014 57.7986 75.3964 57.6693 75.4392 57.5516L78.0078 51.4633C78.0636 51.352 78.1592 51.2653 78.2756 51.2206C78.3923 51.176 78.5213 51.1763 78.6377 51.2216C78.6952 51.2443 78.7473 51.2786 78.7911 51.3223C78.8349 51.366 78.869 51.418 78.8917 51.4753C78.9145 51.5326 78.9252 51.5943 78.9232 51.6556C78.9212 51.7173 78.9064 51.778 78.88 51.8336L76.3115 57.906C76.271 57.9826 76.2108 58.0466 76.1369 58.092C76.0631 58.1373 75.9781 58.1623 75.8916 58.1636Z" fill="#3E3126"/>
<path d="M79.3157 55.234C79.2578 55.2503 79.196 55.2503 79.1381 55.234C79.0806 55.211 79.0281 55.1766 78.984 55.1333C78.9399 55.09 78.9048 55.0386 78.8807 54.9816C78.8566 54.9246 78.8443 54.8636 78.8439 54.8016C78.8439 54.74 78.856 54.679 78.8797 54.6216L80.2688 51.4003C80.3246 51.2976 80.4172 51.2196 80.5279 51.1816C80.6386 51.1436 80.7596 51.1483 80.8669 51.195C80.9745 51.2413 81.0605 51.3263 81.1083 51.433C81.1561 51.5396 81.1621 51.66 81.125 51.771L79.7519 54.9923C79.7068 55.067 79.6426 55.1286 79.5661 55.171C79.4895 55.2133 79.4032 55.235 79.3157 55.234Z" fill="#3E3126"/>
</g>
</svg>
