<svg width="798" height="428" viewBox="0 0 798 428" fill="none" xmlns="http://www.w3.org/2000/svg">
<g clip-path="url(#clip0_7_1169)">
<mask id="mask0_7_1169" style="mask-type:luminance" maskUnits="userSpaceOnUse" x="0" y="0" width="798" height="428">
<path d="M798 0H0V428H798V0Z" fill="white"/>
</mask>
<g mask="url(#mask0_7_1169)">
<g opacity="0.3">
<path opacity="0.3" d="M179.15 147.968V387.931C179.15 390.323 178.677 392.692 177.758 394.9C176.839 397.108 175.492 399.113 173.795 400.798C172.098 402.483 170.085 403.816 167.87 404.719C165.656 405.623 163.285 406.079 160.894 406.062H129.602C135.697 406.062 141.544 403.639 145.854 399.328C150.165 395.016 152.586 389.168 152.586 383.07C152.586 376.972 150.165 371.125 145.854 366.813C141.544 362.501 135.697 360.079 129.602 360.079H22.9848C16.8889 360.079 11.0426 357.657 6.73207 353.345C2.42161 349.033 0 343.185 0 337.088C0 330.99 2.42161 325.142 6.73207 320.83C11.0426 316.518 16.8889 314.096 22.9848 314.096H81.2347C87.331 314.096 93.1773 311.674 97.4874 307.362C101.798 303.05 104.22 297.203 104.22 291.105C104.22 285.007 101.798 279.16 97.4874 274.848C93.1773 270.536 87.331 268.114 81.2347 268.114H22.9848C16.8889 268.114 11.0426 265.691 6.73207 261.38C2.42161 257.068 0 251.22 0 245.122C0 239.025 2.42161 233.177 6.73207 228.865C11.0426 224.553 16.8889 222.131 22.9848 222.131H98.0136C104.11 222.131 109.956 219.709 114.266 215.397C118.577 211.085 120.999 205.237 120.999 199.139C120.999 193.042 118.577 187.194 114.266 182.882C109.956 178.571 104.11 176.148 98.0136 176.148H54.6055C48.5094 176.148 42.6631 173.726 38.3526 169.414C34.0421 165.102 31.6206 159.255 31.6206 153.157C31.6206 147.059 34.0421 141.212 38.3526 136.9C42.6631 132.588 48.5094 130.166 54.6055 130.166H160.894C165.667 130.13 170.262 131.98 173.68 135.313C177.098 138.646 179.064 143.193 179.15 147.968Z" fill="#BDDFE9"/>
<path opacity="0.3" d="M618.851 49.2688V289.331C618.851 291.715 619.319 294.075 620.235 296.277C621.146 298.479 622.485 300.479 624.172 302.163C625.855 303.847 627.856 305.181 630.062 306.091C632.262 307 634.627 307.466 637.006 307.461H668.398C662.3 307.461 656.456 305.039 652.145 300.727C647.834 296.416 645.414 290.568 645.414 284.47C645.414 278.372 647.834 272.525 652.145 268.213C656.456 263.901 662.3 261.479 668.398 261.479H774.916C781.015 261.479 786.859 259.056 791.17 254.745C795.481 250.433 797.9 244.585 797.9 238.488C797.9 232.39 795.481 226.542 791.17 222.23C786.859 217.918 781.015 215.496 774.916 215.496H716.766C710.668 215.496 704.824 213.074 700.513 208.762C696.202 204.45 693.782 198.602 693.782 192.505C693.782 186.407 696.202 180.559 700.513 176.247C704.824 171.936 710.668 169.513 716.766 169.513H774.916C781.015 169.513 786.859 167.091 791.17 162.779C795.481 158.468 797.9 152.62 797.9 146.522C797.9 140.424 795.481 134.577 791.17 130.265C786.859 125.953 781.015 123.531 774.916 123.531H699.955C693.857 123.531 688.012 121.109 683.701 116.797C679.39 112.485 676.971 106.637 676.971 100.539C676.971 94.4417 679.39 88.594 683.701 84.2822C688.012 79.9703 693.857 77.5481 699.955 77.5481H743.395C749.493 77.5481 755.337 75.1259 759.648 70.8141C763.959 66.5022 766.379 60.6546 766.379 54.5566C766.379 48.4591 763.959 42.6111 759.648 38.2994C755.337 33.9877 749.493 31.5654 743.395 31.5654H637.006C632.267 31.5555 627.712 33.4032 624.317 36.7123C620.927 40.0215 618.96 44.529 618.851 49.2688Z" fill="#BDDFE9"/>
</g>
<path d="M629.161 392.856C629.165 397.333 628.289 401.767 626.577 405.905C624.869 410.043 622.36 413.803 619.199 416.973C616.038 420.141 612.285 422.656 608.153 424.373C604.016 426.091 599.585 426.977 595.11 426.981H147.464C143.938 426.981 140.447 426.286 137.19 424.935C133.934 423.585 130.975 421.605 128.483 419.11C125.991 416.615 124.016 413.653 122.67 410.393C121.324 407.134 120.633 403.641 120.637 400.114V44.8982C120.637 37.7814 123.464 30.9559 128.495 25.9236C133.526 20.8912 140.349 18.064 147.464 18.064H484.093C475.241 18.339 466.843 22.0497 460.679 28.4102C454.515 34.7708 451.068 43.2817 451.068 52.1404C451.068 60.9995 454.515 69.5102 460.679 75.871C466.843 82.2312 475.241 85.9419 484.093 86.2171H548.35C557.206 86.4918 565.599 90.2025 571.767 96.5633C577.93 102.924 581.375 111.435 581.375 120.293C581.375 129.152 577.93 137.663 571.767 144.023C565.599 150.384 557.206 154.095 548.35 154.37H437.335C432.864 154.37 428.436 155.251 424.305 156.963C420.174 158.674 416.42 161.183 413.258 164.346C410.096 167.508 407.588 171.263 405.877 175.395C404.166 179.528 403.285 183.957 403.285 188.43C403.285 192.903 404.166 197.331 405.877 201.464C407.588 205.596 410.096 209.351 413.258 212.514C416.42 215.677 420.174 218.185 424.305 219.897C428.436 221.609 432.864 222.49 437.335 222.49H523.494C532.345 222.765 540.743 226.475 546.911 232.836C553.074 239.197 556.519 247.708 556.519 256.566C556.519 265.425 553.074 273.936 546.911 280.297C540.743 286.657 532.345 290.368 523.494 290.643H437.335C432.773 290.501 428.228 291.277 423.971 292.926C419.714 294.575 415.832 297.062 412.554 300.24C409.276 303.419 406.67 307.223 404.891 311.428C403.111 315.633 402.194 320.153 402.194 324.719C402.194 329.285 403.111 333.805 404.891 338.01C406.67 342.215 409.276 346.019 412.554 349.198C415.832 352.376 419.714 354.863 423.971 356.512C428.228 358.161 432.773 358.937 437.335 358.795H595.11C604.14 358.795 612.802 362.384 619.189 368.771C625.571 375.159 629.161 383.822 629.161 392.856Z" fill="#E0F0F5"/>
<path d="M260.385 139.066C260.368 156.172 256.522 173.058 249.131 188.485C241.74 203.911 230.991 217.488 217.672 228.218C204.354 238.949 188.802 246.561 172.16 250.498C155.517 254.435 138.204 254.595 121.491 250.968L120.506 250.738V231.425C97.357 230.264 75.117 222.046 56.7725 207.876L55.8207 207.186C54.2769 206.036 52.7337 204.854 51.2562 203.606L50.8296 203.014C39.2381 185.774 32.5532 165.705 31.4909 144.956C30.4286 124.207 35.0289 103.56 44.799 85.2252C54.5692 66.8909 69.1413 51.5606 86.9541 40.8756C104.768 30.1906 125.151 24.5538 145.921 24.5688H147.333C151.868 24.6309 156.397 24.9599 160.894 25.5541C182.28 28.3631 202.431 37.1777 219.012 50.9758C219.866 51.6327 220.687 52.3554 221.475 53.078C233.578 63.7033 243.301 76.7648 250.009 91.4079C250.666 92.8203 251.29 94.2655 251.848 95.7108C257.498 109.465 260.398 124.195 260.385 139.066Z" fill="#BDDFE9"/>
<path d="M308.128 337.545L288.263 303.124L271.484 332.192L260.714 313.536L226.992 255.138L193.303 313.536L159.581 371.934H226.992H248.532L248.499 371.967H288.263H327.993L308.128 337.545Z" fill="#A8FF8C"/>
<path d="M668.433 44.9003V400.083C668.438 403.613 667.751 407.11 666.407 410.373C665.063 413.636 663.087 416.602 660.598 419.101C658.104 421.599 655.147 423.582 651.886 424.934C648.625 426.287 645.13 426.983 641.606 426.983H595.11C603.961 426.709 612.359 422.998 618.522 416.637C624.685 410.277 628.135 401.766 628.135 392.907C628.135 384.048 624.685 375.537 618.522 369.177C612.359 362.816 603.961 359.105 595.11 358.831H437.335C432.772 358.972 428.228 358.196 423.97 356.547C419.714 354.898 415.831 352.411 412.554 349.233C409.276 346.054 406.67 342.25 404.891 338.045C403.111 333.84 402.194 329.32 402.194 324.754C402.194 320.188 403.111 315.668 404.891 311.463C406.67 307.258 409.276 303.454 412.554 300.275C415.831 297.097 419.714 294.61 423.97 292.961C428.228 291.313 432.772 290.536 437.335 290.678H523.494C532.345 290.402 540.743 286.692 546.911 280.332C553.074 273.971 556.519 265.46 556.519 256.601C556.519 247.742 553.074 239.232 546.911 232.871C540.743 226.511 532.345 222.8 523.494 222.525H437.335C432.863 222.525 428.435 221.644 424.305 219.932C420.173 218.22 416.42 215.712 413.257 212.549C410.096 209.386 407.588 205.631 405.876 201.499C404.165 197.367 403.285 192.937 403.285 188.465C403.285 183.992 404.165 179.563 405.876 175.431C407.588 171.298 410.096 167.544 413.257 164.381C416.42 161.218 420.173 158.709 424.305 156.997C428.435 155.286 432.863 154.405 437.335 154.405H548.35C557.206 154.13 565.599 150.419 571.767 144.059C577.93 137.698 581.375 129.187 581.375 120.328C581.375 111.47 577.93 102.958 571.767 96.5981C565.599 90.2373 557.206 86.5267 548.35 86.2519H484.093C475.241 85.9767 466.843 82.2661 460.679 75.9058C454.515 69.545 451.067 61.0343 451.067 52.1757C451.067 43.3167 454.515 34.8058 460.679 28.4452C466.843 22.0846 475.241 18.3739 484.093 18.099H641.701C648.794 18.1251 655.59 20.9592 660.598 25.9817C665.606 31.0041 668.423 37.8062 668.433 44.9003Z" fill="#BDDFE9"/>
<path d="M252.57 17.3428H316.074C316.074 19.2592 315.313 21.0971 313.958 22.4522C312.603 23.8074 310.766 24.5686 308.85 24.5686H259.794C257.878 24.5686 256.041 23.8074 254.686 22.4522C253.331 21.0971 252.57 19.2592 252.57 17.3428Z" fill="white"/>
<path d="M252.57 62.4059H316.074C316.074 64.3219 315.313 66.1598 313.958 67.515C312.603 68.8702 310.766 69.6316 308.85 69.6316H259.794C257.878 69.6316 256.041 68.8702 254.686 67.515C253.331 66.1598 252.57 64.3219 252.57 62.4059Z" fill="white"/>
<path opacity="0.7" d="M323.134 62.4059H386.604C386.604 64.3219 385.843 66.1598 384.489 67.515C383.134 68.8702 381.297 69.6316 379.381 69.6316H330.358C328.441 69.6316 326.604 68.8702 325.249 67.515C323.894 66.1598 323.134 64.3219 323.134 62.4059Z" fill="white"/>
<path d="M179.15 17.3428H242.621C242.621 19.2592 241.86 21.0971 240.506 22.4522C239.151 23.8074 237.313 24.5686 235.398 24.5686H186.374C184.458 24.5686 182.621 23.8074 181.266 22.4522C179.911 21.0971 179.15 19.2592 179.15 17.3428Z" fill="white"/>
<path d="M82.319 120.443L67.3128 112.593L50.4353 114.104L58.2505 99.0939L56.7401 82.2113L71.7787 90.0288L88.6562 88.5179L80.8086 103.561L82.319 120.443Z" fill="#EEF0F1"/>
<path d="M71.4173 151.186C74.5545 151.186 77.0978 148.641 77.0978 145.504C77.0978 142.365 74.5545 139.821 71.4173 139.821C68.28 139.821 65.7367 142.365 65.7367 145.504C65.7367 148.641 68.28 151.186 71.4173 151.186Z" fill="#EEF0F1"/>
<path d="M372.387 19.1488H344.772C343.901 19.1488 343.066 18.8028 342.451 18.1868C341.835 17.5709 341.489 16.7354 341.489 15.8644C341.489 14.9933 341.835 14.1578 342.451 13.5419C343.066 12.9259 343.901 12.5799 344.772 12.5799H372.288C373.159 12.5799 373.994 12.9259 374.61 13.5419C375.226 14.1578 375.572 14.9933 375.572 15.8644C375.572 16.7354 375.226 17.5709 374.61 18.1868C373.994 18.8028 373.159 19.1488 372.288 19.1488H372.387Z" fill="#183154"/>
<path d="M349.566 428H148.219C140.253 427.966 132.625 424.778 127.001 419.134C121.378 413.491 118.216 405.85 118.208 397.882V42.6985C118.217 34.7132 121.392 27.0575 127.036 21.411C132.681 15.7646 140.335 12.5886 148.317 12.5799H318.734C319.605 12.5799 320.44 12.9259 321.055 13.5419C321.671 14.1578 322.017 14.9933 322.017 15.8644C322.017 16.7354 321.671 17.5709 321.055 18.1868C320.44 18.8028 319.605 19.1488 318.734 19.1488H148.219C141.995 19.1835 136.037 21.6789 131.645 26.0906C127.253 30.5024 124.783 36.4724 124.775 42.6985V397.882C124.783 404.125 127.267 410.11 131.68 414.524C136.093 418.939 142.076 421.423 148.317 421.431H349.665C350.536 421.431 351.371 421.778 351.987 422.393C352.602 423.009 352.948 423.845 352.948 424.716C352.948 425.587 352.602 426.422 351.987 427.038C351.371 427.654 350.536 428 349.665 428H349.566Z" fill="#183154"/>
<path d="M404.238 428H368.118C367.248 428 366.412 427.654 365.797 427.038C365.181 426.422 364.835 425.587 364.835 424.716C364.835 423.845 365.181 423.009 365.797 422.393C366.412 421.777 367.248 421.431 368.118 421.431H404.238C405.108 421.431 405.944 421.777 406.559 422.393C407.175 423.009 407.521 423.845 407.521 424.716C407.521 425.587 407.175 426.422 406.559 427.038C405.944 427.654 405.108 428 404.238 428Z" fill="#183154"/>
<path d="M420.786 428H418.094C417.223 428 416.388 427.654 415.772 427.038C415.157 426.422 414.811 425.587 414.811 424.716C414.811 423.845 415.157 423.009 415.772 422.393C416.388 421.777 417.223 421.431 418.094 421.431H420.786C421.658 421.431 422.492 421.777 423.108 422.393C423.724 423.009 424.07 423.845 424.07 424.716C424.07 425.587 423.724 426.422 423.108 427.038C422.492 427.654 421.658 428 420.786 428Z" fill="#183154"/>
<path d="M642.358 428.001H436.383C435.512 428.001 434.677 427.655 434.061 427.039C433.445 426.423 433.099 425.588 433.099 424.716C433.099 423.845 433.445 423.01 434.061 422.394C434.677 421.778 435.512 421.432 436.383 421.432H642.358C648.605 421.432 654.594 418.951 659.01 414.534C663.42 410.118 665.904 404.128 665.904 397.882V209.452C665.904 208.581 666.248 207.745 666.865 207.13C667.482 206.514 668.314 206.168 669.185 206.168C670.056 206.168 670.893 206.514 671.51 207.13C672.122 207.745 672.471 208.581 672.471 209.452V397.882C672.461 405.867 669.285 413.523 663.639 419.17C657.994 424.816 650.343 427.992 642.358 428.001Z" fill="#183154"/>
<path d="M669.185 195.066C668.314 195.066 667.482 194.72 666.865 194.104C666.248 193.488 665.904 192.653 665.904 191.781V186.592C665.904 185.721 666.248 184.886 666.865 184.269C667.482 183.653 668.314 183.307 669.185 183.307C670.056 183.307 670.892 183.653 671.51 184.269C672.122 184.886 672.471 185.721 672.471 186.592V191.781C672.471 192.653 672.122 193.488 671.51 194.104C670.892 194.72 670.056 195.066 669.185 195.066Z" fill="#183154"/>
<path d="M669.185 172.632C668.314 172.632 667.482 172.286 666.865 171.67C666.248 171.054 665.904 170.219 665.904 169.348V141.692C665.904 140.821 666.248 139.986 666.865 139.37C667.482 138.754 668.314 138.408 669.185 138.408C670.056 138.408 670.892 138.754 671.51 139.37C672.122 139.986 672.471 140.821 672.471 141.692V169.348C672.471 170.219 672.122 171.054 671.51 171.67C670.892 172.286 670.056 172.632 669.185 172.632Z" fill="#183154"/>
<path d="M669.185 119.358C668.314 119.358 667.482 119.012 666.865 118.396C666.248 117.78 665.904 116.945 665.904 116.074V42.6985C665.904 36.4528 663.42 30.4628 659.01 26.0464C654.594 21.63 648.605 19.1488 642.358 19.1488H409.458C408.587 19.1488 407.752 18.8028 407.136 18.1868C406.521 17.5709 406.175 16.7354 406.175 15.8644C406.175 14.9933 406.521 14.1578 407.136 13.5419C407.752 12.9259 408.587 12.5799 409.458 12.5799H642.358C650.343 12.5886 657.999 15.7646 663.639 21.411C669.285 27.0575 672.461 34.7132 672.471 42.6985V116.074C672.471 116.945 672.122 117.78 671.51 118.396C670.893 119.012 670.056 119.358 669.185 119.358Z" fill="#183154"/>
<path d="M390.742 19.1488H386.769C385.898 19.1488 385.063 18.8028 384.447 18.1868C383.832 17.5709 383.486 16.7354 383.486 15.8644C383.486 14.9933 383.832 14.1578 384.447 13.5419C385.063 12.9259 385.898 12.5799 386.769 12.5799H390.742C391.613 12.5799 392.448 12.9259 393.064 13.5419C393.68 14.1578 394.026 14.9933 394.026 15.8644C394.026 16.7354 393.68 17.5709 393.064 18.1868C392.448 18.8028 391.613 19.1488 390.742 19.1488Z" fill="#183154"/>
<path d="M236.383 46.4422C240.227 46.4422 243.344 43.3247 243.344 39.4791C243.344 35.6335 240.227 32.516 236.383 32.516C232.538 32.516 229.421 35.6335 229.421 39.4791C229.421 43.3247 232.538 46.4422 236.383 46.4422Z" fill="#8BBBC6"/>
<path d="M256.412 46.4422C260.257 46.4422 263.373 43.3247 263.373 39.4791C263.373 35.6335 260.257 32.516 256.412 32.516C252.567 32.516 249.451 35.6335 249.451 39.4791C249.451 43.3247 252.567 46.4422 256.412 46.4422Z" fill="#8BBBC6"/>
<path d="M277.361 46.4422C281.206 46.4422 284.322 43.3247 284.322 39.4791C284.322 35.6335 281.206 32.516 277.361 32.516C273.516 32.516 270.4 35.6335 270.4 39.4791C270.4 43.3247 273.516 46.4422 277.361 46.4422Z" fill="#8BBBC6"/>
<path d="M236.842 48.0529C235.142 48.0529 233.48 47.549 232.066 46.6049C230.652 45.6607 229.549 44.3187 228.897 42.7482C228.245 41.1777 228.073 39.4491 228.402 37.7808C228.731 36.1124 229.548 34.579 230.747 33.3742C231.947 32.1695 233.477 31.3473 235.144 31.0116C236.81 30.6759 238.539 30.8416 240.111 31.4879C241.684 32.1341 243.03 33.232 243.979 34.6428C244.928 36.0536 245.439 37.7141 245.445 39.4147C245.449 40.5475 245.23 41.67 244.799 42.7179C244.369 43.7657 243.736 44.7182 242.937 45.5208C242.137 46.3234 241.188 46.9602 240.142 47.3947C239.096 47.8292 237.975 48.0529 236.842 48.0529ZM236.842 34.1595C235.787 34.1596 234.756 34.4734 233.88 35.061C233.004 35.6486 232.322 36.4836 231.922 37.4597C231.521 38.4357 231.419 39.5089 231.63 40.5428C231.841 41.5767 232.354 42.5246 233.105 43.2661C233.855 44.0076 234.809 44.5091 235.845 44.7069C236.881 44.9047 237.953 44.7899 238.924 44.3771C239.894 43.9643 240.721 43.2721 241.297 42.3885C241.874 41.5049 242.174 40.4697 242.161 39.4147C242.135 38.0176 241.565 36.686 240.571 35.7041C239.577 34.7221 238.239 34.1679 236.842 34.1595Z" fill="#183154"/>
<path d="M256.872 48.0529C255.172 48.0529 253.51 47.549 252.096 46.6049C250.682 45.6607 249.579 44.3187 248.927 42.7482C248.275 41.1777 248.103 39.4491 248.432 37.7808C248.761 36.1124 249.577 34.579 250.777 33.3742C251.977 32.1695 253.507 31.3473 255.173 31.0116C256.84 30.6759 258.569 30.8416 260.142 31.4879C261.714 32.1341 263.06 33.232 264.009 34.6428C264.958 36.0536 265.468 37.7141 265.475 39.4147C265.479 40.5475 265.26 41.67 264.829 42.7179C264.399 43.7657 263.766 44.7182 262.967 45.5208C262.167 46.3234 261.217 46.9602 260.171 47.3947C259.125 47.8292 258.004 48.0529 256.872 48.0529ZM256.872 34.1595C255.817 34.1596 254.786 34.4734 253.91 35.061C253.034 35.6486 252.352 36.4836 251.951 37.4597C251.551 38.4357 251.449 39.5089 251.66 40.5428C251.871 41.5767 252.384 42.5246 253.134 43.2661C253.885 44.0076 254.839 44.5091 255.875 44.7069C256.911 44.9047 257.982 44.7899 258.953 44.3771C259.924 43.9643 260.75 43.2721 261.327 42.3885C261.903 41.5049 262.204 40.4697 262.191 39.4147C262.166 38.0176 261.595 36.686 260.601 35.7041C259.607 34.7221 258.269 34.1679 256.872 34.1595Z" fill="#183154"/>
<path d="M277.82 48.0529C276.12 48.0529 274.458 47.549 273.044 46.6049C271.631 45.6607 270.528 44.3187 269.876 42.7482C269.224 41.1777 269.051 39.4491 269.381 37.7808C269.71 36.1124 270.526 34.579 271.726 33.3742C272.925 32.1695 274.455 31.3473 276.122 31.0116C277.789 30.6759 279.518 30.8416 281.09 31.4879C282.663 32.1341 284.008 33.232 284.958 34.6428C285.907 36.0536 286.417 37.7141 286.423 39.4147C286.432 40.5487 286.216 41.6732 285.787 42.7231C285.358 43.7729 284.725 44.7271 283.925 45.5305C283.125 46.334 282.173 46.9706 281.125 47.4036C280.078 47.8366 278.954 48.0572 277.82 48.0529ZM277.82 34.1595C276.766 34.1596 275.735 34.4734 274.858 35.061C273.982 35.6486 273.301 36.4836 272.9 37.4597C272.499 38.4357 272.398 39.5089 272.609 40.5428C272.819 41.5767 273.333 42.5246 274.083 43.2661C274.834 44.0076 275.787 44.5091 276.823 44.7069C277.86 44.9047 278.931 44.7899 279.902 44.3771C280.873 43.9643 281.699 43.2721 282.275 42.3885C282.852 41.5049 283.153 40.4697 283.14 39.4147C283.123 38.0149 282.555 36.6784 281.559 35.6947C280.563 34.711 279.22 34.1594 277.82 34.1595Z" fill="#183154"/>
<path d="M594.323 135.945H395.306C393.564 135.945 391.894 135.253 390.662 134.021C389.431 132.789 388.739 131.118 388.739 129.376C388.739 127.634 389.431 125.963 390.662 124.731C391.894 123.499 393.564 122.807 395.306 122.807H594.323C596.066 122.807 597.733 123.499 598.963 124.731C600.198 125.963 600.89 127.634 600.89 129.376C600.89 131.118 600.198 132.789 598.963 134.021C597.733 135.253 596.066 135.945 594.323 135.945Z" fill="#8BBBC6"/>
<path d="M462.98 167.147H395.306C393.564 167.147 391.894 166.455 390.662 165.223C389.431 163.991 388.739 162.32 388.739 160.578C388.739 158.836 389.431 157.165 390.662 155.933C391.894 154.701 393.564 154.009 395.306 154.009H462.98C464.722 154.009 466.392 154.701 467.624 155.933C468.855 157.165 469.547 158.836 469.547 160.578C469.547 162.32 468.855 163.991 467.624 165.223C466.392 166.455 464.722 167.147 462.98 167.147Z" fill="#8BBBC6"/>
<path d="M462.98 238.159H395.306C393.564 238.159 391.894 237.466 390.662 236.235C389.431 235.003 388.739 233.332 388.739 231.59C388.739 229.847 389.431 228.177 390.662 226.945C391.894 225.713 393.564 225.021 395.306 225.021H462.98C464.722 225.021 466.392 225.713 467.624 226.945C468.855 228.177 469.547 229.847 469.547 231.59C469.547 233.332 468.855 235.003 467.624 236.235C466.392 237.466 464.722 238.159 462.98 238.159Z" fill="#389D9C"/>
<path d="M553.408 198.351H515.255C513.513 198.351 511.84 197.658 510.61 196.427C509.376 195.195 508.684 193.524 508.684 191.782C508.684 190.039 509.376 188.369 510.61 187.137C511.84 185.905 513.513 185.213 515.255 185.213H553.408C555.15 185.213 556.823 185.905 558.052 187.137C559.282 188.369 559.974 190.039 559.974 191.782C559.974 193.524 559.282 195.195 558.052 196.427C556.823 197.658 555.15 198.351 553.408 198.351Z" fill="#8BBBC6"/>
<path opacity="0.8" d="M613.4 198.351H575.242C573.505 198.351 571.832 197.658 570.602 196.427C569.368 195.195 568.676 193.524 568.676 191.782C568.676 190.039 569.368 188.369 570.602 187.137C571.832 185.905 573.505 185.213 575.242 185.213H613.4C615.142 185.213 616.81 185.905 618.044 187.137C619.274 188.369 619.966 190.039 619.966 191.782C619.966 193.524 619.274 195.195 618.044 196.427C616.81 197.658 615.142 198.351 613.4 198.351Z" fill="#8BBBC6"/>
<path d="M433.428 198.351H395.306C393.564 198.351 391.894 197.658 390.662 196.427C389.431 195.195 388.739 193.524 388.739 191.782C388.739 190.039 389.431 188.369 390.662 187.137C391.894 185.905 393.564 185.213 395.306 185.213H433.428C435.169 185.213 436.84 185.905 438.072 187.137C439.303 188.369 439.995 190.039 439.995 191.782C439.995 193.524 439.303 195.195 438.072 196.427C436.84 197.658 435.169 198.351 433.428 198.351Z" fill="#8BBBC6"/>
<path opacity="0.3" d="M493.418 198.351H455.296C453.555 198.351 451.884 197.658 450.652 196.427C449.421 195.195 448.729 193.524 448.729 191.782C448.729 190.039 449.421 188.369 450.652 187.137C451.884 185.905 453.555 185.213 455.296 185.213H493.418C495.16 185.213 496.83 185.905 498.061 187.137C499.295 188.369 499.987 190.039 499.987 191.782C499.987 193.524 499.295 195.195 498.061 196.427C496.83 197.658 495.16 198.351 493.418 198.351Z" fill="#8BBBC6"/>
<path d="M594.323 272.94H395.306C393.564 272.94 391.894 272.248 390.662 271.016C389.431 269.784 388.739 268.113 388.739 266.371C388.739 264.629 389.431 262.958 390.662 261.726C391.894 260.494 393.564 259.802 395.306 259.802H594.323C596.066 259.802 597.733 260.494 598.963 261.726C600.198 262.958 600.89 264.629 600.89 266.371C600.89 268.113 600.198 269.784 598.963 271.016C597.733 272.248 596.066 272.94 594.323 272.94Z" fill="#8BBBC6"/>
<path d="M462.98 304.144H395.306C393.564 304.144 391.894 303.451 390.662 302.22C389.431 300.988 388.739 299.317 388.739 297.575C388.739 295.832 389.431 294.162 390.662 292.929C391.894 291.698 393.564 291.005 395.306 291.005H462.98C464.722 291.005 466.392 291.698 467.624 292.929C468.855 294.162 469.547 295.832 469.547 297.575C469.547 299.317 468.855 300.988 467.624 302.22C466.392 303.451 464.722 304.144 462.98 304.144Z" fill="#8BBBC6"/>
<path d="M462.98 375.154H395.306C393.564 375.154 391.894 374.461 390.662 373.23C389.431 371.997 388.739 370.327 388.739 368.584C388.739 366.842 389.431 365.171 390.662 363.94C391.894 362.708 393.564 362.016 395.306 362.016H462.98C464.722 362.016 466.392 362.708 467.624 363.94C468.855 365.171 469.547 366.842 469.547 368.584C469.547 370.327 468.855 371.997 467.624 373.23C466.392 374.461 464.722 375.154 462.98 375.154Z" fill="#389D9C"/>
<path d="M553.408 335.345H515.255C513.513 335.345 511.84 334.653 510.61 333.421C509.376 332.189 508.684 330.519 508.684 328.776C508.684 327.034 509.376 325.363 510.61 324.132C511.84 322.899 513.513 322.208 515.255 322.208H553.408C555.15 322.208 556.823 322.899 558.052 324.132C559.282 325.363 559.974 327.034 559.974 328.776C559.974 330.519 559.282 332.189 558.052 333.421C556.823 334.653 555.15 335.345 553.408 335.345Z" fill="#8BBBC6"/>
<path opacity="0.8" d="M613.4 335.345H575.242C573.505 335.345 571.832 334.653 570.602 333.421C569.368 332.189 568.676 330.519 568.676 328.776C568.676 327.034 569.368 325.363 570.602 324.132C571.832 322.899 573.505 322.208 575.242 322.208H613.4C615.142 322.208 616.81 322.899 618.044 324.132C619.274 325.363 619.966 327.034 619.966 328.776C619.966 330.519 619.274 332.189 618.044 333.421C616.81 334.653 615.142 335.345 613.4 335.345Z" fill="#8BBBC6"/>
<path d="M433.428 335.345H395.306C393.564 335.345 391.894 334.653 390.662 333.421C389.431 332.189 388.739 330.519 388.739 328.776C388.739 327.034 389.431 325.363 390.662 324.132C391.894 322.899 393.564 322.208 395.306 322.208H433.428C435.169 322.208 436.84 322.899 438.072 324.132C439.303 325.363 439.995 327.034 439.995 328.776C439.995 330.519 439.303 332.189 438.072 333.421C436.84 334.653 435.169 335.345 433.428 335.345Z" fill="#8BBBC6"/>
<path opacity="0.3" d="M493.418 335.345H455.296C453.555 335.345 451.884 334.653 450.652 333.421C449.421 332.189 448.729 330.519 448.729 328.776C448.729 327.034 449.421 325.363 450.652 324.132C451.884 322.899 453.555 322.208 455.296 322.208H493.418C495.16 322.208 496.83 322.899 498.061 324.132C499.295 325.363 499.987 327.034 499.987 328.776C499.987 330.519 499.295 332.189 498.061 333.421C496.83 334.653 495.16 335.345 493.418 335.345Z" fill="#8BBBC6"/>
<path d="M243.606 117.124C243.606 132.158 240.645 147.045 234.892 160.935C229.14 174.825 220.707 187.444 210.078 198.073C199.449 208.703 186.83 217.134 172.943 222.884C159.055 228.635 144.172 231.592 129.142 231.588C127.467 231.588 125.858 231.588 124.118 231.588H123.133C99.9835 230.427 77.7435 222.209 59.399 208.038L58.4795 207.348C56.7725 206.002 55.1964 204.589 53.4889 203.177C31.9492 184.318 18.2556 158.07 15.1085 129.61C11.9613 101.15 19.5891 72.544 36.4875 49.4319C53.3858 26.3199 78.3285 10.3801 106.396 4.75601C134.464 -0.868158 163.62 4.23149 188.114 19.0493C191.069 20.8229 193.926 22.7279 196.684 24.7314L197.111 25.027C207.665 32.8279 216.814 42.3688 224.167 53.2407C232.039 64.8773 237.684 77.8741 240.815 91.5706C241.143 92.983 241.439 94.4282 241.701 95.873C242.996 102.882 243.633 109.996 243.606 117.124Z" fill="#A8FF8C"/>
<path d="M244.755 118.767C244.738 149.122 232.671 178.228 211.207 199.686C189.742 221.144 160.638 233.198 130.292 233.198C129.339 233.198 128.354 233.198 127.402 233.198C127.074 233.198 126.745 233.198 126.417 233.198C103.432 232.471 81.2093 224.787 62.6831 211.159L61.7636 210.469C60.2204 209.32 58.6771 208.137 57.1996 206.889C47.8079 199.075 39.717 189.818 33.2298 179.464C33.8208 179.858 34.4447 180.219 35.0685 180.581C38.5836 182.734 42.2239 184.675 45.9699 186.394C60.9497 193.304 77.2497 196.879 93.7453 196.872C104.762 196.88 115.721 195.298 126.286 192.175L127.27 191.879C148.001 185.547 166.509 173.461 180.645 157.024C194.781 140.588 203.963 120.477 207.127 99.0272C207.356 97.582 207.52 96.1696 207.685 94.7244C208.12 90.6225 208.339 86.5003 208.341 82.3751C208.344 75.2115 207.674 68.0634 206.338 61.0258C204.877 53.2318 202.599 45.6135 199.541 38.2972C198.064 34.7296 196.398 31.2431 194.55 27.8526C193.5 25.9148 192.416 24.0098 191.267 22.1704L190.939 21.645C194.012 23.556 196.982 25.6281 199.837 27.8526L200.231 28.1482C209.76 35.5574 218.06 44.4253 224.824 54.4242C233.2 66.6451 239.09 80.3943 242.162 94.8886C242.49 96.301 242.786 97.7462 243.016 99.1915C244.153 105.655 244.735 112.204 244.755 118.767Z" fill="#389D9C"/>
<path d="M129.174 157.294C126.658 157.297 124.225 156.4 122.312 154.765L95.5838 131.774C94.4577 130.984 93.5094 129.968 92.7995 128.79C92.0896 127.612 91.6346 126.298 91.4628 124.933C91.2916 123.568 91.4076 122.183 91.8038 120.865C92.2001 119.548 92.8677 118.329 93.7633 117.285C94.6593 116.241 95.7635 115.397 97.0055 114.806C98.2471 114.215 99.5992 113.891 100.974 113.854C102.349 113.818 103.716 114.069 104.987 114.593C106.259 115.117 107.406 115.901 108.357 116.895L127.303 133.153L154.327 93.4767C155.053 92.3987 155.985 91.4741 157.069 90.7559C158.152 90.0378 159.367 89.5401 160.643 89.2917C161.919 89.0429 163.232 89.0484 164.505 89.3072C165.779 89.566 166.99 90.0731 168.068 90.8002C169.146 91.5268 170.071 92.459 170.788 93.5429C171.506 94.6268 172.004 95.8421 172.252 97.1182C172.501 98.3947 172.495 99.7076 172.237 100.982C171.978 102.256 171.471 103.467 170.744 104.545L137.909 152.696C137.068 153.924 135.979 154.962 134.712 155.743C133.445 156.523 132.028 157.03 130.554 157.228C130.096 157.283 129.635 157.304 129.174 157.294Z" fill="white"/>
<g opacity="0.15">
<path opacity="0.15" d="M85.2078 73.507C96.7412 73.507 106.091 64.1547 106.091 52.6181C106.091 41.0811 96.7412 31.7287 85.2078 31.7287C73.6739 31.7287 64.3244 41.0811 64.3244 52.6181C64.3244 64.1547 73.6739 73.507 85.2078 73.507Z" fill="white"/>
<path opacity="0.15" d="M61.1393 93.9037C66.906 93.9037 71.581 89.2275 71.581 83.459C71.581 77.6905 66.906 73.0143 61.1393 73.0143C55.3726 73.0143 50.6976 77.6905 50.6976 83.459C50.6976 89.2275 55.3726 93.9037 61.1393 93.9037Z" fill="white"/>
</g>
<path d="M15.8267 137.325C15.0299 137.333 14.2575 137.051 13.6534 136.531C13.0492 136.011 12.6546 135.29 12.5431 134.5C11.7824 128.96 11.3984 123.375 11.3939 117.783C11.3939 116.912 11.7398 116.076 12.3556 115.46C12.9714 114.844 13.8065 114.498 14.6774 114.498C15.5483 114.498 16.3834 114.844 16.9992 115.46C17.615 116.076 17.961 116.912 17.961 117.783C17.96 123.067 18.3221 128.346 19.0445 133.581C19.1699 134.419 18.9666 135.273 18.4771 135.965C17.9876 136.656 17.2496 137.132 16.4177 137.292L15.8267 137.325Z" fill="#183154"/>
<path d="M21.9668 161.365C21.3015 161.361 20.6533 161.154 20.108 160.773C19.5626 160.392 19.146 159.854 18.9131 159.23C17.4364 155.292 16.165 151.28 15.1042 147.209C14.9956 146.791 14.9707 146.355 15.0309 145.927C15.091 145.499 15.235 145.087 15.4547 144.715C15.6743 144.343 15.9652 144.018 16.3108 143.758C16.6563 143.498 17.0497 143.309 17.4684 143.202C17.8867 143.094 18.3222 143.069 18.7502 143.129C19.1781 143.189 19.59 143.333 19.9621 143.553C20.3343 143.773 20.6594 144.063 20.919 144.409C21.1784 144.755 21.3671 145.148 21.4743 145.567C22.4732 149.414 23.6678 153.207 25.0534 156.931C25.3525 157.742 25.3203 158.638 24.9639 159.425C24.6074 160.211 23.9553 160.826 23.1489 161.136C22.7743 161.291 22.3723 161.369 21.9668 161.365Z" fill="#183154"/>
<path d="M52.1423 110.621C53.4486 110.621 54.7016 110.102 55.625 109.178C56.5485 108.254 57.0677 107.001 57.0677 105.694C57.0677 104.388 56.5485 103.135 55.625 102.21C54.7016 101.287 53.4486 100.768 52.1423 100.768C50.836 100.768 49.5832 101.287 48.6596 102.21C47.7359 103.135 47.2169 104.388 47.2169 105.694C47.2169 107.001 47.7359 108.254 48.6596 109.178C49.5832 110.102 50.836 110.621 52.1423 110.621Z" fill="#FDFEFF"/>
<path d="M61.6322 146.029C58.7429 138.966 57.0344 131.476 56.5754 123.859C56.2473 119.129 48.8592 119.096 49.1875 123.859C49.768 132.773 51.8207 141.53 55.2621 149.773C57.1011 154.142 63.4711 150.364 61.6322 146.029Z" fill="#FDFEFF"/>
<path d="M669.185 62.6682H230.046C229.174 62.6682 228.34 62.3223 227.724 61.7062C227.108 61.09 226.762 60.2549 226.762 59.3835C226.762 58.5126 227.108 57.677 227.724 57.0614C228.34 56.4452 229.174 56.0994 230.046 56.0994H669.185C670.056 56.0994 670.893 56.4452 671.51 57.0614C672.122 57.677 672.471 58.5126 672.471 59.3835C672.471 60.2549 672.122 61.09 671.51 61.7062C670.893 62.3223 670.056 62.6682 669.185 62.6682Z" fill="#183154"/>
<path d="M333.477 376.828H242.687H153.703L226.795 250.146L271.254 327.2L288.066 298.099L333.477 376.828ZM253.917 370.259H322.116L288.066 311.138L271.254 340.239L226.795 263.283L165.064 370.193H253.95L253.917 370.259Z" fill="#183154"/>
<path d="M129.142 235.53C127.402 235.53 125.628 235.53 123.921 235.53H122.805C99.0366 234.332 76.2073 225.873 57.3963 211.291L56.5754 210.699C54.6712 209.222 52.9966 207.777 51.3219 206.331C42.6143 198.657 35.0901 189.736 28.9938 179.859C26.9162 176.48 25.02 172.994 23.3133 169.414C23.0849 169.024 22.9393 168.592 22.8856 168.143C22.8319 167.695 22.8712 167.24 23.0011 166.808C23.1309 166.375 23.3486 165.974 23.6405 165.63C23.9323 165.285 24.292 165.004 24.6972 164.805C25.1024 164.606 25.5443 164.492 25.9952 164.471C26.4463 164.451 26.8967 164.523 27.3184 164.684C27.7401 164.846 28.124 165.093 28.4462 165.409C28.7684 165.725 29.0219 166.105 29.1908 166.523C30.8326 169.808 32.4744 173.092 34.5759 176.213C40.372 185.557 47.5327 193.982 55.8202 201.207C57.3963 202.554 59.1038 203.934 60.647 205.28L61.5665 205.937C79.3619 219.753 100.965 227.777 123.461 228.928H124.282C126.056 228.928 127.566 228.928 129.306 228.928C158.745 228.859 186.958 217.123 207.765 196.292C228.572 175.46 240.28 147.23 240.323 117.782C240.326 110.816 239.666 103.865 238.353 97.0241C238.09 95.6117 237.827 94.1993 237.499 92.8526C234.499 79.6319 229.078 67.0815 221.508 55.8366L221.311 55.541C214.229 45.0407 205.413 35.8222 195.24 28.2799L194.747 27.9514C191.858 25.7618 189.034 23.8896 186.276 22.335C170.733 13.0233 153.15 7.65224 135.058 6.68909C116.966 5.72594 98.9132 9.19996 82.4703 16.8088C66.0269 24.4175 51.6913 35.9306 40.7117 50.3462C29.732 64.7614 22.4404 81.6425 19.4715 99.52C19.2003 100.218 18.6991 100.801 18.0509 101.175C17.4027 101.548 16.6463 101.69 15.9071 101.575C15.1678 101.46 14.4899 101.096 13.9857 100.543C13.4815 99.9903 13.1811 99.2816 13.1343 98.5346C16.2919 79.6229 24.0151 61.7674 35.6337 46.5172C47.2523 31.267 62.4152 19.0829 79.8075 11.0218C97.1997 2.96086 116.295 -0.733547 135.438 0.259161C154.581 1.25187 173.192 6.9017 189.658 16.7185C192.58 18.4921 195.568 20.4628 198.458 22.5649L198.917 22.8933C209.691 30.8281 219.039 40.5348 226.565 51.5999L226.795 51.9278C234.916 63.8815 240.729 77.2495 243.935 91.3417C244.263 92.7869 244.591 94.265 244.854 95.776C246.219 103.021 246.911 110.377 246.923 117.749C246.888 148.981 234.467 178.924 212.385 201.006C190.303 223.088 160.366 235.504 129.142 235.53Z" fill="#183154"/>
<g opacity="0.4">
<path opacity="0.4" d="M114.628 80.2724C126.162 80.2724 135.512 70.9201 135.512 59.383C135.512 47.8464 126.162 38.494 114.628 38.494C103.095 38.494 93.7448 47.8464 93.7448 59.383C93.7448 70.9201 103.095 80.2724 114.628 80.2724Z" fill="white"/>
<path opacity="0.4" d="M90.5598 100.669C96.327 100.669 101.002 95.9924 101.002 90.2244C101.002 84.4559 96.327 79.7797 90.5598 79.7797C84.7931 79.7797 80.1181 84.4559 80.1181 90.2244C80.1181 95.9924 84.7931 100.669 90.5598 100.669Z" fill="white"/>
</g>
<path d="M266.427 266.37C277.852 266.37 287.113 257.106 287.113 245.678C287.113 234.25 277.852 224.986 266.427 224.986C255.002 224.986 245.741 234.25 245.741 245.678C245.741 257.106 255.002 266.37 266.427 266.37Z" fill="#A8FF8C"/>
<path d="M267.576 269.655C262.835 269.655 258.201 268.249 254.259 265.615C250.317 262.98 247.245 259.236 245.431 254.855C243.616 250.473 243.142 245.653 244.067 241.001C244.991 236.351 247.274 232.078 250.626 228.725C253.979 225.372 258.25 223.088 262.899 222.163C267.549 221.238 272.369 221.712 276.749 223.527C281.128 225.342 284.872 228.415 287.506 232.358C290.14 236.301 291.546 240.937 291.546 245.679C291.537 252.035 289.009 258.129 284.516 262.623C280.022 267.118 273.931 269.647 267.576 269.655ZM267.576 228.304C264.133 228.304 260.766 229.326 257.904 231.24C255.041 233.154 252.811 235.875 251.494 239.058C250.178 242.241 249.836 245.742 250.51 249.12C251.184 252.498 252.845 255.6 255.282 258.033C257.719 260.466 260.823 262.121 264.201 262.789C267.579 263.457 271.079 263.108 274.258 261.785C277.438 260.462 280.153 258.226 282.062 255.359C283.97 252.492 284.985 249.123 284.979 245.679C284.97 241.068 283.133 236.649 279.87 233.391C276.607 230.134 272.186 228.304 267.576 228.304Z" fill="#183154"/>
</g>
</g>
<defs>
<clipPath id="clip0_7_1169">
<rect width="798" height="428" fill="white"/>
</clipPath>
</defs>
</svg>
